<?xml version="1.0" encoding="utf-8"?>
<!-- Generator: Adobe Illustrator 26.0.0, SVG Export Plug-In . SVG Version: 6.00 Build 0)  -->
<svg version="1.1" id="Layer_1" xmlns="http://www.w3.org/2000/svg" xmlns:xlink="http://www.w3.org/1999/xlink" x="0px" y="0px"
	 viewBox="0 0 1364.8 1361.7" style="enable-background:new 0 0 1364.8 1361.7;" xml:space="preserve">
<style type="text/css">
	.st0{fill:#F5F5F5;}
</style>
<g>
	<g>
		<g>
			<path class="st0" d="M1164.1,1152.3c-75.6,40.7-162,64-253.9,64c-295.3,0-534.9-239.4-534.9-534.9c0-3.3,0-6.4,0.2-9.7h0.7
				c0,3.1-0.2,6.1-0.2,9.2c0,195.7,159,354.8,354.8,354.8c84.4,0,166-30.1,230-84.7l18.2-15.4L1164.1,1152.3z"/>
		</g>
		<path class="st0" d="M1164.5,209.3l-0.9,1.1L978.8,426.3c0,0,0,0-0.4-0.4c-1.7-1.7-9.9-9.5-24-20.4c-0.2-0.2-0.4-0.2-0.6-0.4
			c-24.6-20-51.4-36.3-79.8-48.8c-0.4,0-0.6-0.2-0.7-0.4c-80.2-38.7-202.1-71-353.1-27.1c-6.8,2-13.4,4-19.8,6.2
			c-4.4,1.5-9,2.9-13.4,4.6c-10.1,3.7-20,7.7-29.5,12.1c-9.2,4.2-18.3,8.4-27,13.2c-18.5,9.9-35.8,20.7-52.1,32.5
			c-2.9,2.2-6.1,4.2-9,6.6c-1.5,1.1-2.9,2.2-4.4,3.5c-3.7,2.8-7.3,5.7-10.8,8.6c-22.4,18.3-42.6,38.2-60.9,59.2
			c-2.2,2.6-4.4,5.1-6.6,7.7c-9.7,11.4-18.7,22.9-27.1,34.7c0,0,0,0-0.2,0.4c-0.2,0.2-0.4,0.6-0.7,0.9c0,0-0.2,0.2-0.2,0.4
			c-1.7,2-4.8,6.4-9,12.7c-1.3,1.7-2.4,3.7-3.9,5.7c-39.1,61.3-141.6,257.5-38.9,509.8l0,0c-37.1-52.8-66.4-111.7-86.2-174.6
			C101.5,812.4,91,747.6,91,680.7c0-15.8,0.6-31.6,1.7-47c23.7-330.9,301-593,638.2-593c152.2,0,299.9,54.3,415.5,153.2
			L1164.5,209.3z"/>
		<path class="st0" d="M249.2,532.3c4.2-6.4,7.3-10.6,9-12.7C255,523.7,252.1,527.9,249.2,532.3z"/>
		<path class="st0" d="M430.6,365.2c8.6-4.8,17.6-9.2,27-13.2C448.2,356.2,439.4,360.4,430.6,365.2z"/>
		<path class="st0" d="M1164.5,1152.7l-18.2,15.4c-115.6,98.7-263.2,153-415.5,153c-216.6,0-408.7-108.2-524.4-273.5l0,0
			c-102.7-252.2-0.2-448.7,38.9-509.8c1.5-2,2.6-4,3.9-5.7c2.9-4.2,5.9-8.4,9-12.7c0-0.2,0.2-0.2,0.2-0.4c0.2-0.4,0.4-0.7,0.7-0.9
			c0.2-0.2,0.2-0.4,0.2-0.4c8.4-11.9,17.6-23.3,27.1-34.7c2.2-2.6,4.4-5.1,6.6-7.7c18.3-20.9,38.5-40.9,60.9-59.2
			c3.5-2.9,7.2-5.9,10.8-8.6c1.5-1.1,2.9-2.2,4.4-3.5c2.9-2.2,5.9-4.4,9-6.6c16.3-11.7,33.8-22.6,52.1-32.5
			c8.6-4.8,17.6-9.2,27-13.2c9.5-4.4,19.4-8.4,29.5-12.1c4.4-1.7,8.8-3.1,13.4-4.6c6.4-2.2,13-4.2,19.8-6.2
			C670.9,285,793,317.3,873,356c-44.6-19.6-93-29.9-142.5-29.9c-154.3,0-285.8,98.9-334.4,236.6c-12.3,34.1-19.3,71-20.2,109h-0.7
			c0,3.3,0,6.4,0,9.7c0,295.3,239.4,534.9,534.7,534.9c91.9,0,178.3-23.3,253.9-64L1164.5,1152.7z"/>
	</g>
	<polygon class="st0" points="1049.1,680.9 631.8,440 631.8,921.9 	"/>
	<polygon class="st0" points="631.8,921.9 835.2,557.4 631.8,440 	"/>
</g>
</svg>
