<?xml version="1.0" encoding="utf-8"?>
<!-- Generator: Adobe Illustrator 26.0.0, SVG Export Plug-In . SVG Version: 6.00 Build 0)  -->
<svg version="1.1" id="Layer_1" xmlns="http://www.w3.org/2000/svg" xmlns:xlink="http://www.w3.org/1999/xlink" x="0px" y="0px"
	 viewBox="0 0 2135 826.7" style="enable-background:new 0 0 2135 826.7;" xml:space="preserve">
<style type="text/css">
	.st0{fill:url(#SVGID_1_);}
	.st1{fill:url(#SVGID_00000143601919422177810460000012394317097321275032_);}
	.st2{fill:url(#SVGID_00000111158443815932985920000004386541827387167368_);}
	.st3{fill:url(#SVGID_00000003078090519454916170000008388996265068172716_);}
	.st4{fill:url(#SVGID_00000112611286744816315210000016739008710528361124_);}
	.st5{fill:url(#SVGID_00000061465952151365884290000000494171319376947084_);}
	.st6{fill:url(#SVGID_00000183217387507922101080000014681034761511081352_);}
	.st7{fill:url(#SVGID_00000029741836815117987520000002073870615273887134_);}
	.st8{fill:url(#SVGID_00000128455872558319243180000013155198867439145137_);}
	.st9{fill:url(#SVGID_00000050627578795075685850000016807168510021538490_);}
	.st10{fill:url(#SVGID_00000076568239790764562100000004963119322427219091_);}
	.st11{fill:url(#SVGID_00000057862666096720121520000011963585058735129504_);}
	.st12{fill:url(#SVGID_00000133517062835757831920000007546520414615224762_);}
	.st13{fill:url(#SVGID_00000093176525626773279460000016474417506208483489_);}
	.st14{fill:url(#SVGID_00000049926840714314848590000016386773245014983323_);}
</style>
<g>
	<g>
		<linearGradient id="SVGID_1_" gradientUnits="userSpaceOnUse" x1="698.0822" y1="328.4038" x2="2024.0054" y2="328.4038">
			<stop  offset="0" style="stop-color:#00A1EA"/>
			<stop  offset="1" style="stop-color:#0060C9"/>
		</linearGradient>
		<path class="st0" d="M728.4,384.2c0-40.4,22.4-74.3,89.8-79.8l58.3-5c15-1.5,19.4-7.5,19.4-15c0-17-11-25.9-29.9-25.9
			c-18.9,0-29.4,9-31.9,25.9h-91.7c0-54.3,35.4-89.8,122.7-89.8s122.7,35.4,122.7,89.8v106.7c0,34.9,3,57.3,8,65.8h-83.8
			c-7-8-11-18-11-29.9C886,450.1,865,462,823.1,462C760.8,462,728.4,431.6,728.4,384.2z M895.9,356.8v-9c-2.5,2-10,3.5-19.9,4.5
			l-24.4,2c-22.9,1.5-31.4,10.5-31.4,22.9c0,15.5,9.5,23.9,30.4,23.9C878.5,401.2,895.9,381.3,895.9,356.8z"/>
		
			<linearGradient id="SVGID_00000067945794005097197850000003871464880715335301_" gradientUnits="userSpaceOnUse" x1="698.0822" y1="325.9107" x2="2024.0054" y2="325.9107">
			<stop  offset="0" style="stop-color:#00A1EA"/>
			<stop  offset="1" style="stop-color:#0060C9"/>
		</linearGradient>
		<path style="fill:url(#SVGID_00000067945794005097197850000003871464880715335301_);" d="M1318.7,457V303
			c0-24.4-10-34.4-23.9-34.4c-18,0-33.9,12-33.9,41.9V457h-87.8V303c0-24.4-10-34.4-23.9-34.4c-17.9,0-33.9,12-33.9,41.9V457h-87.8
			V199.8h86.8v34.9c13.5-21.9,30.9-39.9,65.8-39.9c35.4,0,60.3,13,72.8,39.9c13-21.9,35.9-39.9,70.8-39.9
			c53.9,0,82.8,29.9,82.8,92.2v170H1318.7z"/>
		
			<linearGradient id="SVGID_00000022547601505984280010000010053899045945840808_" gradientUnits="userSpaceOnUse" x1="698.0822" y1="282.0326" x2="2024.0054" y2="282.0326">
			<stop  offset="0" style="stop-color:#00A1EA"/>
			<stop  offset="1" style="stop-color:#0060C9"/>
		</linearGradient>
		<path style="fill:url(#SVGID_00000022547601505984280010000010053899045945840808_);" d="M1533.1,422.1V457h-86.8V102h91.7v125.2
			c14-19.4,34.4-32.4,67.8-32.4c69.3,0,114.7,49.4,114.7,133.6c0,84.3-45.4,133.6-114.7,133.6C1566.1,462,1546.6,444.1,1533.1,422.1
			z M1628.9,328.4c0-44.9-18-64.8-45.4-64.8c-27.4,0-45.4,19.9-45.4,64.8c0,44.9,18,64.8,45.4,64.8
			C1610.9,393.2,1628.9,373.3,1628.9,328.4z"/>
		
			<linearGradient id="SVGID_00000160182088578289326510000003328033041155268261_" gradientUnits="userSpaceOnUse" x1="698.0822" y1="328.4038" x2="2024.0054" y2="328.4038">
			<stop  offset="0" style="stop-color:#00A1EA"/>
			<stop  offset="1" style="stop-color:#0060C9"/>
		</linearGradient>
		<path style="fill:url(#SVGID_00000160182088578289326510000003328033041155268261_);" d="M1740.6,328.4
			c0-79.3,50.4-133.6,139.6-133.6s139.6,54.3,139.6,133.6c0,79.3-50.4,133.6-139.6,133.6S1740.6,407.7,1740.6,328.4z M1928,328.4
			c0-44.9-17-64.8-47.9-64.8c-30.9,0-47.9,19.9-47.9,64.8c0,44.9,17,64.8,47.9,64.8C1911.1,393.2,1928,373.3,1928,328.4z"/>
	</g>
	<g>
		
			<linearGradient id="SVGID_00000155861132475566917740000004350190326171090605_" gradientUnits="userSpaceOnUse" x1="746.7885" y1="586.5354" x2="1357.2233" y2="583.405">
			<stop  offset="0" style="stop-color:#FF5F5B"/>
			<stop  offset="1" style="stop-color:#FF0066"/>
		</linearGradient>
		<path style="fill:url(#SVGID_00000155861132475566917740000004350190326171090605_);" d="M865.8,670.1l-19.1-47.4h-85.9
			l-19.1,47.4h-13.2L796.1,502h15.1L879,670.1H865.8z M803.7,515l-39.4,97.5h78.6L803.7,515z"/>
		
			<linearGradient id="SVGID_00000169524229102138247510000009282403194265485211_" gradientUnits="userSpaceOnUse" x1="746.7916" y1="587.1564" x2="1357.2264" y2="584.0259">
			<stop  offset="0" style="stop-color:#FF5F5B"/>
			<stop  offset="1" style="stop-color:#FF0066"/>
		</linearGradient>
		<path style="fill:url(#SVGID_00000169524229102138247510000009282403194265485211_);" d="M990.2,590.3
			c17.2,4.5,27.1,16.5,27.1,35.2v27.6c0,7.1,0.9,13,2.4,17h-11.1c-2.1-4.5-3.8-9.7-3.8-17v-27.4c0-23.1-15.3-30.9-36.6-30.9h-58.1
			v75.3h-12.5V502h72.2c32.3,0,49.8,17.5,49.8,46C1019.7,569.8,1009.5,584.7,990.2,590.3z M969.2,512h-59v72.9h59
			c27.4,0,38-15.1,38-36.4C1007.2,527.1,996.5,512,969.2,512z"/>
		
			<linearGradient id="SVGID_00000046324015853463945750000006158352418656804020_" gradientUnits="userSpaceOnUse" x1="746.7958" y1="587.966" x2="1357.2306" y2="584.8356">
			<stop  offset="0" style="stop-color:#FF5F5B"/>
			<stop  offset="1" style="stop-color:#FF0066"/>
		</linearGradient>
		<path style="fill:url(#SVGID_00000046324015853463945750000006158352418656804020_);" d="M1039.5,586.1
			c0-51.2,25.3-86.4,77.4-86.4c45.8,0,70.8,27.6,70.8,57.8h-10.6c-3.5-26.9-23.8-47.4-60.2-47.4c-42.5,0-64.9,27.6-64.9,76
			s22.4,76,64.9,76c43.2,0,59-26.7,59.5-67.5h-55v-9.4h67v85h-10.4l-0.7-38.9c-6.1,24.5-24.8,41.3-61.1,41.3
			C1064.3,672.5,1039.5,637.3,1039.5,586.1z"/>
		
			<linearGradient id="SVGID_00000003783865370472811870000013268780479806930048_" gradientUnits="userSpaceOnUse" x1="746.8002" y1="588.8394" x2="1357.235" y2="585.7089">
			<stop  offset="0" style="stop-color:#FF5F5B"/>
			<stop  offset="1" style="stop-color:#FF0066"/>
		</linearGradient>
		<path style="fill:url(#SVGID_00000003783865370472811870000013268780479806930048_);" d="M1209.5,586.1
			c0-51.2,25.3-86.4,77.4-86.4c52.4,0,77.7,35.2,77.7,86.4s-25.3,86.4-77.7,86.4C1234.7,672.5,1209.5,637.3,1209.5,586.1z
			 M1352,586.1c0-48.4-22.4-76-65.1-76c-42.5,0-64.9,27.6-64.9,76s22.4,76,64.9,76C1329.6,662.1,1352,634.5,1352,586.1z"/>
	</g>
	<g>
		<g>
			<g>
				
					<linearGradient id="SVGID_00000086650220003197964720000018196214390236533416_" gradientUnits="userSpaceOnUse" x1="270.439" y1="556.7699" x2="700.4003" y2="556.7699">
					<stop  offset="0" style="stop-color:#FF5F5B"/>
					<stop  offset="1" style="stop-color:#FF0066"/>
				</linearGradient>
				<path style="fill:url(#SVGID_00000086650220003197964720000018196214390236533416_);" d="M700.4,670.3
					c-41.2,22.2-88.3,34.9-138.4,34.9c-161,0-291.6-130.5-291.6-291.6c0-1.8,0-3.5,0.1-5.3h0.4c0,1.7-0.1,3.3-0.1,5
					c0,106.7,86.7,193.4,193.4,193.4c46,0,90.5-16.4,125.4-46.2l9.9-8.4L700.4,670.3z"/>
			</g>
			
				<linearGradient id="SVGID_00000096059380482161368990000009319249930133629356_" gradientUnits="userSpaceOnUse" x1="115.1659" y1="338.7809" x2="700.5613" y2="338.7809">
				<stop  offset="0" style="stop-color:#FF5F5B"/>
				<stop  offset="1" style="stop-color:#FF0066"/>
			</linearGradient>
			<path style="fill:url(#SVGID_00000096059380482161368990000009319249930133629356_);" d="M700.6,156.2l-0.5,0.6L599.4,274.5
				c0,0,0,0-0.2-0.2c-0.9-0.9-5.4-5.2-13.1-11.1c-0.1-0.1-0.2-0.1-0.3-0.2c-13.4-10.9-28-19.8-43.5-26.6c-0.2,0-0.3-0.1-0.4-0.2
				c-43.7-21.1-110.2-38.7-192.5-14.8c-3.7,1.1-7.3,2.2-10.8,3.4c-2.4,0.8-4.9,1.6-7.3,2.5c-5.5,2-10.9,4.2-16.1,6.6
				c-5,2.3-10,4.6-14.7,7.2c-10.1,5.4-19.5,11.3-28.4,17.7c-1.6,1.2-3.3,2.3-4.9,3.6c-0.8,0.6-1.6,1.2-2.4,1.9c-2,1.5-4,3.1-5.9,4.7
				c-12.2,10-23.2,20.8-33.2,32.3c-1.2,1.4-2.4,2.8-3.6,4.2c-5.3,6.2-10.2,12.5-14.8,18.9c0,0,0,0-0.1,0.2c-0.1,0.1-0.2,0.3-0.4,0.5
				c0,0-0.1,0.1-0.1,0.2c-0.9,1.1-2.6,3.5-4.9,6.9c-0.7,0.9-1.3,2-2.1,3.1c-21.3,33.4-77.2,140.4-21.2,277.9h0
				c-20.2-28.8-36.2-60.9-47-95.2c-10.4-33-16.1-68.3-16.1-104.8c0-8.6,0.3-17.2,0.9-25.6C129.2,207.2,280.4,64.3,464.2,64.3
				c83,0,163.5,29.6,226.5,83.5L700.6,156.2z"/>
			
				<linearGradient id="SVGID_00000139996108312130610830000007241883020324131720_" gradientUnits="userSpaceOnUse" x1="201.6125" y1="328.7824" x2="206.479" y2="328.7824">
				<stop  offset="0" style="stop-color:#FFBF53"/>
				<stop  offset="1" style="stop-color:#FF6F42"/>
			</linearGradient>
			<path style="fill:url(#SVGID_00000139996108312130610830000007241883020324131720_);" d="M201.6,332.3c2.3-3.5,4-5.8,4.9-6.9
				C204.8,327.6,203.2,329.9,201.6,332.3z"/>
			
				<linearGradient id="SVGID_00000080185164534617102180000015312791593311531450_" gradientUnits="userSpaceOnUse" x1="300.4909" y1="237.602" x2="315.1789" y2="237.602">
				<stop  offset="0" style="stop-color:#FFBF53"/>
				<stop  offset="1" style="stop-color:#FF6F42"/>
			</linearGradient>
			<path style="fill:url(#SVGID_00000080185164534617102180000015312791593311531450_);" d="M300.5,241.2c4.7-2.6,9.6-5,14.7-7.2
				C310.1,236.3,305.3,238.6,300.5,241.2z"/>
			
				<linearGradient id="SVGID_00000038385692424531312790000015376406326486655627_" gradientUnits="userSpaceOnUse" x1="154.1079" y1="486.1797" x2="700.5613" y2="486.1797">
				<stop  offset="0" style="stop-color:#00A1EA"/>
				<stop  offset="1" style="stop-color:#0060C9"/>
			</linearGradient>
			<path style="fill:url(#SVGID_00000038385692424531312790000015376406326486655627_);" d="M700.6,670.5l-9.9,8.4
				c-63,53.8-143.5,83.4-226.5,83.4c-118.1,0-222.8-59-285.9-149.1h0c-56-137.5-0.1-244.6,21.2-277.9c0.8-1.1,1.4-2.2,2.1-3.1
				c1.6-2.3,3.2-4.6,4.9-6.9c0-0.1,0.1-0.1,0.1-0.2c0.1-0.2,0.2-0.4,0.4-0.5c0.1-0.1,0.1-0.2,0.1-0.2c4.6-6.5,9.6-12.7,14.8-18.9
				c1.2-1.4,2.4-2.8,3.6-4.2c10-11.4,21-22.3,33.2-32.3c1.9-1.6,3.9-3.2,5.9-4.7c0.8-0.6,1.6-1.2,2.4-1.9c1.6-1.2,3.2-2.4,4.9-3.6
				c8.9-6.4,18.4-12.3,28.4-17.7c4.7-2.6,9.6-5,14.7-7.2c5.2-2.4,10.6-4.6,16.1-6.6c2.4-0.9,4.8-1.7,7.3-2.5
				c3.5-1.2,7.1-2.3,10.8-3.4c82.3-23.9,148.9-6.3,192.5,14.8c-24.3-10.7-50.7-16.3-77.7-16.3c-84.1,0-155.8,53.9-182.3,129
				c-6.7,18.6-10.5,38.7-11,59.4h-0.4c0,1.8,0,3.5,0,5.3c0,161,130.5,291.6,291.5,291.6c50.1,0,97.2-12.7,138.4-34.9L700.6,670.5z"
				/>
		</g>
		
			<linearGradient id="SVGID_00000097489892245434507140000005029473898640165281_" gradientUnits="userSpaceOnUse" x1="251.0739" y1="420.4783" x2="627.3499" y2="420.4783" gradientTransform="matrix(1 0 0 1 76.3216 -7.1285)">
			<stop  offset="0" style="stop-color:#00A1EA"/>
			<stop  offset="1" style="stop-color:#0060C9"/>
		</linearGradient>
		<polygon style="fill:url(#SVGID_00000097489892245434507140000005029473898640165281_);" points="637.7,413.3 410.2,282 
			410.2,544.7 		"/>
		
			<linearGradient id="SVGID_00000071541569833900381460000012142441221845091213_" gradientUnits="userSpaceOnUse" x1="447.2457" y1="398.175" x2="73.0004" y2="471.8134" gradientTransform="matrix(1 0 0 1 76.3216 -7.1285)">
			<stop  offset="0" style="stop-color:#00A1EA"/>
			<stop  offset="1" style="stop-color:#0060C9"/>
		</linearGradient>
		<polygon style="fill:url(#SVGID_00000071541569833900381460000012142441221845091213_);" points="410.2,544.7 521.1,346 
			410.2,282 		"/>
	</g>
</g>
</svg>
