<?xml version="1.0" encoding="utf-8"?>
<!-- Generator: Adobe Illustrator 26.0.0, SVG Export Plug-In . SVG Version: 6.00 Build 0)  -->
<svg version="1.1" id="Layer_1" xmlns="http://www.w3.org/2000/svg" xmlns:xlink="http://www.w3.org/1999/xlink" x="0px" y="0px"
	 viewBox="0 0 2135 826.7" style="enable-background:new 0 0 2135 826.7;" xml:space="preserve">
<style type="text/css">
	.st0{fill:#F5F5F5;}
</style>
<g>
	<g>
		<path class="st0" d="M728.4,384.2c0-40.4,22.4-74.3,89.8-79.8l58.3-5c15-1.5,19.4-7.5,19.4-15c0-17-11-25.9-29.9-25.9
			s-29.4,9-31.9,25.9h-91.7c0-54.3,35.4-89.8,122.7-89.8s122.7,35.4,122.7,89.8v106.7c0,34.9,3,57.3,8,65.8H912c-7-8-11-18-11-29.9
			c-15,23.1-36,35-77.9,35C760.8,462,728.4,431.6,728.4,384.2z M895.9,356.8v-9c-2.5,2-10,3.5-19.9,4.5l-24.4,2
			c-22.9,1.5-31.4,10.5-31.4,22.9c0,15.5,9.5,23.9,30.4,23.9C878.5,401.2,895.9,381.3,895.9,356.8z"/>
		<path class="st0" d="M1318.7,457V303c0-24.4-10-34.4-23.9-34.4c-18,0-33.9,12-33.9,41.9V457h-87.8V303c0-24.4-10-34.4-23.9-34.4
			c-17.9,0-33.9,12-33.9,41.9V457h-87.8V199.8h86.8v34.9c13.5-21.9,30.9-39.9,65.8-39.9c35.4,0,60.3,13,72.8,39.9
			c13-21.9,35.9-39.9,70.8-39.9c53.9,0,82.8,29.9,82.8,92.2v170H1318.7z"/>
		<path class="st0" d="M1533.1,422.1V457h-86.8V102h91.7v125.2c14-19.4,34.4-32.4,67.8-32.4c69.3,0,114.7,49.4,114.7,133.6
			c0,84.3-45.4,133.6-114.7,133.6C1566.1,462,1546.6,444.1,1533.1,422.1z M1628.9,328.4c0-44.9-18-64.8-45.4-64.8
			s-45.4,19.9-45.4,64.8s18,64.8,45.4,64.8C1610.9,393.2,1628.9,373.3,1628.9,328.4z"/>
		<path class="st0" d="M1740.6,328.4c0-79.3,50.4-133.6,139.6-133.6s139.6,54.3,139.6,133.6S1969.4,462,1880.2,462
			S1740.6,407.7,1740.6,328.4z M1928,328.4c0-44.9-17-64.8-47.9-64.8s-47.9,19.9-47.9,64.8s17,64.8,47.9,64.8
			C1911.1,393.2,1928,373.3,1928,328.4z"/>
	</g>
	<g>
		<path class="st0" d="M865.8,670.1l-19.1-47.4h-85.9l-19.1,47.4h-13.2L796.1,502h15.1L879,670.1H865.8z M803.7,515l-39.4,97.5h78.6
			L803.7,515z"/>
		<path class="st0" d="M990.2,590.3c17.2,4.5,27.1,16.5,27.1,35.2v27.6c0,7.1,0.9,13,2.4,17h-11.1c-2.1-4.5-3.8-9.7-3.8-17v-27.4
			c0-23.1-15.3-30.9-36.6-30.9h-58.1v75.3h-12.5V502h72.2c32.3,0,49.8,17.5,49.8,46C1019.7,569.8,1009.5,584.7,990.2,590.3z
			 M969.2,512h-59v72.9h59c27.4,0,38-15.1,38-36.4C1007.2,527.1,996.5,512,969.2,512z"/>
		<path class="st0" d="M1039.5,586.1c0-51.2,25.3-86.4,77.4-86.4c45.8,0,70.8,27.6,70.8,57.8h-10.6c-3.5-26.9-23.8-47.4-60.2-47.4
			c-42.5,0-64.9,27.6-64.9,76s22.4,76,64.9,76c43.2,0,59-26.7,59.5-67.5h-55v-9.4h67v85H1178l-0.7-38.9
			c-6.1,24.5-24.8,41.3-61.1,41.3C1064.3,672.5,1039.5,637.3,1039.5,586.1z"/>
		<path class="st0" d="M1209.5,586.1c0-51.2,25.3-86.4,77.4-86.4c52.4,0,77.7,35.2,77.7,86.4s-25.3,86.4-77.7,86.4
			C1234.7,672.5,1209.5,637.3,1209.5,586.1z M1352,586.1c0-48.4-22.4-76-65.1-76c-42.5,0-64.9,27.6-64.9,76s22.4,76,64.9,76
			C1329.6,662.1,1352,634.5,1352,586.1z"/>
	</g>
	<g>
		<g>
			<g>
				<path class="st0" d="M700.4,670.3c-41.2,22.2-88.3,34.9-138.4,34.9c-161,0-291.6-130.5-291.6-291.6c0-1.8,0-3.5,0.1-5.3h0.4
					c0,1.7-0.1,3.3-0.1,5c0,106.7,86.7,193.4,193.4,193.4c46,0,90.5-16.4,125.4-46.2l9.9-8.4L700.4,670.3z"/>
			</g>
			<path class="st0" d="M700.6,156.2l-0.5,0.6L599.4,274.5c0,0,0,0-0.2-0.2c-0.9-0.9-5.4-5.2-13.1-11.1c-0.1-0.1-0.2-0.1-0.3-0.2
				c-13.4-10.9-28-19.8-43.5-26.6c-0.2,0-0.3-0.1-0.4-0.2c-43.7-21.1-110.2-38.7-192.5-14.8c-3.7,1.1-7.3,2.2-10.8,3.4
				c-2.4,0.8-4.9,1.6-7.3,2.5c-5.5,2-10.9,4.2-16.1,6.6c-5,2.3-10,4.6-14.7,7.2c-10.1,5.4-19.5,11.3-28.4,17.7
				c-1.6,1.2-3.3,2.3-4.9,3.6c-0.8,0.6-1.6,1.2-2.4,1.9c-2,1.5-4,3.1-5.9,4.7c-12.2,10-23.2,20.8-33.2,32.3
				c-1.2,1.4-2.4,2.8-3.6,4.2c-5.3,6.2-10.2,12.5-14.8,18.9c0,0,0,0-0.1,0.2c-0.1,0.1-0.2,0.3-0.4,0.5c0,0-0.1,0.1-0.1,0.2
				c-0.9,1.1-2.6,3.5-4.9,6.9c-0.7,0.9-1.3,2-2.1,3.1c-21.3,33.4-77.2,140.4-21.2,277.9l0,0c-20.2-28.8-36.2-60.9-47-95.2
				c-10.4-33-16.1-68.3-16.1-104.8c0-8.6,0.3-17.2,0.9-25.6C129.2,207.2,280.4,64.3,464.2,64.3c83,0,163.5,29.6,226.5,83.5
				L700.6,156.2z"/>
			<path class="st0" d="M201.6,332.3c2.3-3.5,4-5.8,4.9-6.9C204.8,327.6,203.2,329.9,201.6,332.3z"/>
			<path class="st0" d="M300.5,241.2c4.7-2.6,9.6-5,14.7-7.2C310.1,236.3,305.3,238.6,300.5,241.2z"/>
			<path class="st0" d="M700.6,670.5l-9.9,8.4c-63,53.8-143.5,83.4-226.5,83.4c-118.1,0-222.8-59-285.9-149.1l0,0
				c-56-137.5-0.1-244.6,21.2-277.9c0.8-1.1,1.4-2.2,2.1-3.1c1.6-2.3,3.2-4.6,4.9-6.9c0-0.1,0.1-0.1,0.1-0.2
				c0.1-0.2,0.2-0.4,0.4-0.5c0.1-0.1,0.1-0.2,0.1-0.2c4.6-6.5,9.6-12.7,14.8-18.9c1.2-1.4,2.4-2.8,3.6-4.2
				c10-11.4,21-22.3,33.2-32.3c1.9-1.6,3.9-3.2,5.9-4.7c0.8-0.6,1.6-1.2,2.4-1.9c1.6-1.2,3.2-2.4,4.9-3.6
				c8.9-6.4,18.4-12.3,28.4-17.7c4.7-2.6,9.6-5,14.7-7.2c5.2-2.4,10.6-4.6,16.1-6.6c2.4-0.9,4.8-1.7,7.3-2.5
				c3.5-1.2,7.1-2.3,10.8-3.4c82.3-23.9,148.9-6.3,192.5,14.8c-24.3-10.7-50.7-16.3-77.7-16.3c-84.1,0-155.8,53.9-182.3,129
				c-6.7,18.6-10.5,38.7-11,59.4h-0.4c0,1.8,0,3.5,0,5.3c0,161,130.5,291.6,291.5,291.6c50.1,0,97.2-12.7,138.4-34.9L700.6,670.5z"
				/>
		</g>
		<polygon class="st0" points="637.7,413.3 410.2,282 410.2,544.7 		"/>
		<polygon class="st0" points="410.2,544.7 521.1,346 410.2,282 		"/>
	</g>
</g>
</svg>
