<svg width="24" height="24" viewBox="0 0 24 24" fill="none" xmlns="http://www.w3.org/2000/svg">
<path d="M21.375 6.855L12.375 1.605C12.261 1.53917 12.1317 1.50452 12 1.50452C11.8683 1.50452 11.739 1.53917 11.625 1.605L2.625 6.855C2.51165 6.92044 2.41739 7.01441 2.35161 7.12756C2.28582 7.24071 2.25079 7.36911 2.25 7.5V21C2.25 21.1989 2.32902 21.3897 2.46967 21.5303C2.61032 21.671 2.80109 21.75 3 21.75H9.75C9.94891 21.75 10.1397 21.671 10.2803 21.5303C10.421 21.3897 10.5 21.1989 10.5 21V15.75H13.5V21C13.5 21.1989 13.579 21.3897 13.7197 21.5303C13.8603 21.671 14.0511 21.75 14.25 21.75H21C21.1989 21.75 21.3897 21.671 21.5303 21.5303C21.671 21.3897 21.75 21.1989 21.75 21V7.5C21.7492 7.36911 21.7142 7.24071 21.6484 7.12756C21.5826 7.01441 21.4884 6.92044 21.375 6.855ZM20.25 20.25H15V15C15 14.8011 14.921 14.6103 14.7803 14.4697C14.6397 14.329 14.4489 14.25 14.25 14.25H9.75C9.55109 14.25 9.36032 14.329 9.21967 14.4697C9.07902 14.6103 9 14.8011 9 15V20.25H3.75V7.9275L12 3.12L20.25 7.9275V20.25Z" fill="#2D2D2D"/>
</svg>
