<svg width="40" height="40" viewBox="0 0 40 40" fill="none" xmlns="http://www.w3.org/2000/svg">
<path fill-rule="evenodd" clip-rule="evenodd" d="M2.82549 29.7292L0 40L10.5583 37.2442C13.4784 38.8274 16.7503 39.6569 20.0753 39.6571H20.0839C31.0602 39.6571 39.9953 30.764 40 19.8359C40.0021 14.5758 37.9048 9.53049 34.1695 5.81032C30.4342 2.09014 25.3671 2.47829e-05 20.0836 0C9.1052 0 0.171598 8.89122 0.167205 19.8199C0.162934 23.2982 1.07984 26.7161 2.82549 29.7292ZM11.6521 34.0125L11.0474 33.6556L4.78221 35.2909L6.45474 29.2117L6.06065 28.5885C4.40283 25.9624 3.52551 22.9228 3.53012 19.8211C3.53375 10.7377 10.9593 3.34784 20.0901 3.34784C29.2324 3.35151 36.6408 10.7327 36.6372 19.8343C36.6334 28.9184 29.2076 36.3092 20.0839 36.3092H20.0774C17.113 36.3094 14.203 35.5162 11.6521 34.0125Z" fill="url(#paint0_linear_7113_13402)"/>
<path d="M15.1066 11.5342C14.7342 10.7092 14.3414 10.6927 13.9868 10.6786C13.6967 10.6662 13.3647 10.667 13.0332 10.667C12.5232 10.6803 12.0421 10.905 11.7058 11.2868C11.2497 11.7826 9.96387 12.981 9.96387 15.4184C9.96387 17.8558 11.7473 20.2113 11.9959 20.5424C12.2446 20.8736 15.4386 26.0345 20.4967 28.0203C24.7003 29.6706 25.5557 29.3423 26.4682 29.2598C27.3807 29.1773 29.4123 28.062 29.8271 26.9047C30.2419 25.7475 30.2418 24.7562 30.1174 24.5494C29.993 24.3425 29.6612 24.2191 29.1635 23.9714C28.6658 23.7236 26.2194 22.5249 25.7631 22.3597C25.3068 22.1945 24.9751 22.112 24.6433 22.608C24.3114 23.1041 23.3583 24.2191 23.0677 24.5494C22.777 24.8796 22.487 24.9217 21.9893 24.674C21.4916 24.4263 19.8885 23.9029 17.9875 22.2152C16.5082 20.9022 15.5094 19.2805 15.2191 18.7846C14.9288 18.2886 15.188 18.0207 15.4376 17.7737C15.6611 17.5519 15.9353 17.1955 16.1842 16.9062C16.433 16.6169 16.5154 16.4104 16.6814 16.0801C16.8474 15.7497 16.7643 15.4599 16.6399 15.2122C16.5154 14.9645 15.5491 12.5138 15.1066 11.5342Z" fill="url(#paint1_linear_7113_13402)"/>
<defs>
<linearGradient id="paint0_linear_7113_13402" x1="40" y1="40" x2="40" y2="0" gradientUnits="userSpaceOnUse">
<stop stop-color="#20B038"/>
<stop offset="1" stop-color="#60D66A"/>
</linearGradient>
<linearGradient id="paint1_linear_7113_13402" x1="30.1899" y1="29.3418" x2="30.1899" y2="10.667" gradientUnits="userSpaceOnUse">
<stop stop-color="#20B038"/>
<stop offset="1" stop-color="#60D66A"/>
</linearGradient>
</defs>
</svg>
