<svg width="33" height="33" viewBox="0 0 33 33" fill="none" xmlns="http://www.w3.org/2000/svg">
<g clip-path="url(#clip0_6063_1974)">
<path d="M0.5 11.3564C0.5 7.55977 0.5 5.66147 1.25058 4.21655C1.88308 2.99893 2.87588 2.00613 4.0935 1.37362C5.53843 0.623047 7.43673 0.623047 11.2333 0.623047H21.7667C25.5633 0.623047 27.4616 0.623047 28.9065 1.37362C30.1241 2.00613 31.1169 2.99893 31.7494 4.21655C32.5 5.66147 32.5 7.55977 32.5 11.3564V21.8897C32.5 25.6863 32.5 27.5846 31.7494 29.0295C31.1169 30.2472 30.1241 31.24 28.9065 31.8725C27.4616 32.623 25.5633 32.623 21.7667 32.623H11.2333C7.43673 32.623 5.53843 32.623 4.0935 31.8725C2.87588 31.24 1.88308 30.2472 1.25058 29.0295C0.5 27.5846 0.5 25.6863 0.5 21.8897V11.3564Z" fill="url(#paint0_linear_6063_1974)"/>
<path d="M22.7229 21.0669L23.434 16.6225H19.1673V13.5114C19.1673 12.2669 19.6118 11.2891 21.5673 11.2891H23.6118V7.20029C22.4562 7.02251 21.2118 6.84473 20.0562 6.84473C16.4118 6.84473 13.834 9.06696 13.834 13.0669V16.6225H9.83398V21.0669H13.834V32.6225C15.6118 32.6225 17.3895 32.6225 19.1673 32.6225V21.0669H22.7229Z" fill="white"/>
</g>
<defs>
<linearGradient id="paint0_linear_6063_1974" x1="16.5" y1="31.6881" x2="16.5" y2="0.623047" gradientUnits="userSpaceOnUse">
<stop stop-color="#0062E0"/>
<stop offset="1" stop-color="#19AFFF"/>
</linearGradient>
<clipPath id="clip0_6063_1974">
<rect width="32" height="33" fill="white" transform="translate(0.5)"/>
</clipPath>
</defs>
</svg>
