<svg width="37" height="38" viewBox="0 0 37 38" fill="none" xmlns="http://www.w3.org/2000/svg">
<circle cx="18.4997" cy="18.7516" r="15.4167" fill="#1DA1F2"/>
<path fill-rule="evenodd" clip-rule="evenodd" d="M27.75 12.8226C27.0699 13.1247 26.3379 13.3282 25.5702 13.4201C26.354 12.9502 26.9558 12.2065 27.2388 11.3204C26.5063 11.7558 25.6929 12.0709 24.829 12.2417C24.1366 11.5042 23.1494 11.043 22.0585 11.043C19.9626 11.043 18.2632 12.7424 18.2632 14.8383C18.2632 15.1355 18.2971 15.4253 18.3619 15.7034C15.2072 15.5456 12.4108 14.0342 10.5387 11.7379C10.2119 12.2984 10.0251 12.9502 10.0251 13.6458C10.0251 14.9622 10.6941 16.124 11.7134 16.8047C11.0906 16.785 10.5061 16.6142 9.99365 16.3299V16.3774C9.99365 18.2168 11.3027 19.7503 13.0379 20.1C12.7198 20.1863 12.3843 20.2332 12.0384 20.2332C11.7936 20.2332 11.5556 20.2091 11.3237 20.1647C11.8065 21.6724 13.2087 22.77 14.8693 22.8008C13.5707 23.8182 11.9342 24.4256 10.1558 24.4256C9.84874 24.4256 9.5466 24.4077 9.25 24.3719C10.9297 25.4486 12.9245 26.0775 15.0679 26.0775C22.0487 26.0775 25.8662 20.2942 25.8662 15.2792C25.8662 15.1145 25.8631 14.9505 25.8551 14.7884C26.5975 14.2519 27.2413 13.5835 27.75 12.8226Z" fill="white"/>
</svg>
