<svg width="33" height="33" viewBox="0 0 33 33" fill="none" xmlns="http://www.w3.org/2000/svg">
<g clip-path="url(#clip0_6063_1978)">
<mask id="mask0_6063_1978" style="mask-type:luminance" maskUnits="userSpaceOnUse" x="0" y="0" width="33" height="33">
<path d="M32.5 0.623047H0.5V32.623H32.5V0.623047Z" fill="white"/>
</mask>
<g mask="url(#mask0_6063_1978)">
<path d="M0.517578 11.3564C0.517578 7.55977 0.517578 5.66147 1.26815 4.21655C1.90066 2.99893 2.89346 2.00613 4.11108 1.37362C5.556 0.623047 7.45431 0.623047 11.2509 0.623047H21.7842C25.5808 0.623047 27.4792 0.623047 28.9241 1.37362C30.1417 2.00613 31.1345 2.99893 31.767 4.21655C32.5176 5.66147 32.5176 7.55977 32.5176 11.3564V21.8897C32.5176 25.6863 32.5176 27.5846 31.767 29.0295C31.1345 30.2472 30.1417 31.24 28.9241 31.8725C27.4792 32.623 25.5808 32.623 21.7842 32.623H11.2509C7.45431 32.623 5.556 32.623 4.11108 31.8725C2.89346 31.24 1.90066 30.2472 1.26815 29.0295C0.517578 27.5846 0.517578 25.6863 0.517578 21.8897V11.3564Z" fill="url(#paint0_radial_6063_1978)"/>
<path d="M0.517578 11.3564C0.517578 7.55977 0.517578 5.66147 1.26815 4.21655C1.90066 2.99893 2.89346 2.00613 4.11108 1.37362C5.556 0.623047 7.45431 0.623047 11.2509 0.623047H21.7842C25.5808 0.623047 27.4792 0.623047 28.9241 1.37362C30.1417 2.00613 31.1345 2.99893 31.767 4.21655C32.5176 5.66147 32.5176 7.55977 32.5176 11.3564V21.8897C32.5176 25.6863 32.5176 27.5846 31.767 29.0295C31.1345 30.2472 30.1417 31.24 28.9241 31.8725C27.4792 32.623 25.5808 32.623 21.7842 32.623H11.2509C7.45431 32.623 5.556 32.623 4.11108 31.8725C2.89346 31.24 1.90066 30.2472 1.26815 29.0295C0.517578 27.5846 0.517578 25.6863 0.517578 21.8897V11.3564Z" fill="url(#paint1_radial_6063_1978)"/>
<path d="M16.5003 4.98633C13.3401 4.98633 12.9435 5.00015 11.7023 5.05664C10.4636 5.11337 9.61805 5.30949 8.87819 5.59724C8.11288 5.89446 7.46369 6.29203 6.81692 6.93906C6.16967 7.58585 5.7721 8.23506 5.47393 9.00015C5.18545 9.74027 4.9891 10.5861 4.93334 11.8244C4.87783 13.0656 4.86328 13.4624 4.86328 16.6227C4.86328 19.7829 4.87734 20.1783 4.93358 21.4195C4.99055 22.6583 5.18667 23.5039 5.47417 24.2438C5.77162 25.0091 6.16918 25.6583 6.81619 26.3051C7.46272 26.9524 8.11191 27.3509 8.87674 27.6481C9.61708 27.9359 10.4629 28.132 11.7014 28.1887C12.9426 28.2452 13.3389 28.259 16.4988 28.259C19.6592 28.259 20.0546 28.2452 21.2958 28.1887C22.5345 28.132 23.381 27.9359 24.1214 27.6481C24.8864 27.3509 25.5347 26.9524 26.1812 26.3051C26.8284 25.6583 27.226 25.0091 27.5242 24.244C27.8102 23.5039 28.0066 22.6581 28.0648 21.4198C28.1205 20.1785 28.1351 19.7829 28.1351 16.6227C28.1351 13.4624 28.1205 13.0658 28.0648 11.8246C28.0066 10.5858 27.8102 9.74027 27.5242 9.00039C27.226 8.23506 26.8284 7.58585 26.1812 6.93906C25.5339 6.29179 24.8867 5.89421 24.1206 5.59724C23.3788 5.30949 22.5328 5.11337 21.2941 5.05664C20.0529 5.00015 19.6577 4.98633 16.4966 4.98633H16.5003ZM15.4564 7.0833C15.7662 7.08282 16.1119 7.0833 16.5003 7.0833C19.6071 7.0833 19.9753 7.09446 21.2022 7.15021C22.3367 7.20209 22.9524 7.39167 23.3626 7.55094C23.9056 7.76185 24.2928 8.01397 24.6998 8.42124C25.107 8.82852 25.3591 9.21639 25.5705 9.75943C25.7298 10.1691 25.9196 10.7848 25.9712 11.9194C26.027 13.1461 26.0391 13.5145 26.0391 16.62C26.0391 19.7255 26.027 20.0939 25.9712 21.3206C25.9194 22.4552 25.7298 23.0709 25.5705 23.4806C25.3596 24.0236 25.107 24.4103 24.6998 24.8173C24.2925 25.2246 23.9059 25.4767 23.3626 25.6876C22.9529 25.8476 22.3367 26.0367 21.2022 26.0886C19.9756 26.1444 19.6071 26.1565 16.5003 26.1565C13.3932 26.1565 13.025 26.1444 11.7983 26.0886C10.6638 26.0362 10.0481 25.8467 9.63768 25.6874C9.09467 25.4765 8.7068 25.2244 8.29954 24.8171C7.89228 24.4098 7.64017 24.0229 7.42878 23.4796C7.26951 23.0699 7.0797 22.4542 7.02806 21.3196C6.97231 20.093 6.96116 19.7245 6.96116 16.6171C6.96116 13.5097 6.97231 13.1432 7.02806 11.9165C7.07994 10.7819 7.26951 10.1662 7.42878 9.75603C7.63968 9.213 7.89228 8.82512 8.29954 8.41785C8.7068 8.01058 9.09467 7.75846 9.63768 7.54706C10.0479 7.38706 10.6638 7.19797 11.7983 7.14585C12.8718 7.09737 13.2878 7.08282 15.4564 7.0804V7.0833ZM22.7115 9.01543C21.9406 9.01543 21.3151 9.64015 21.3151 10.4113C21.3151 11.1822 21.9406 11.8076 22.7115 11.8076C23.4824 11.8076 24.1078 11.1822 24.1078 10.4113C24.1078 9.64039 23.4824 9.01543 22.7115 9.01543ZM16.5003 10.6469C13.2002 10.6469 10.5247 13.3225 10.5247 16.6227C10.5247 19.9228 13.2002 22.5972 16.5003 22.5972C19.8003 22.5972 22.4749 19.9228 22.4749 16.6227C22.4749 13.3225 19.8003 10.6469 16.5003 10.6469ZM16.5003 12.7439C18.6423 12.7439 20.3789 14.4804 20.3789 16.6227C20.3789 18.7647 18.6423 20.5015 16.5003 20.5015C14.358 20.5015 12.6216 18.7647 12.6216 16.6227C12.6216 14.4804 14.358 12.7439 16.5003 12.7439Z" fill="white"/>
</g>
</g>
<defs>
<radialGradient id="paint0_radial_6063_1978" cx="0" cy="0" r="1" gradientUnits="userSpaceOnUse" gradientTransform="translate(9.01762 35.0877) rotate(-90) scale(31.7144 29.4969)">
<stop stop-color="#FFDD55"/>
<stop offset="0.1" stop-color="#FFDD55"/>
<stop offset="0.5" stop-color="#FF543E"/>
<stop offset="1" stop-color="#C837AB"/>
</radialGradient>
<radialGradient id="paint1_radial_6063_1978" cx="0" cy="0" r="1" gradientUnits="userSpaceOnUse" gradientTransform="translate(-4.84259 2.92827) rotate(78.6806) scale(14.1765 58.4359)">
<stop stop-color="#3771C8"/>
<stop offset="0.128" stop-color="#3771C8"/>
<stop offset="1" stop-color="#6600FF" stop-opacity="0"/>
</radialGradient>
<clipPath id="clip0_6063_1978">
<rect width="32" height="33" fill="white" transform="translate(0.5)"/>
</clipPath>
</defs>
</svg>
