<svg width="40" height="40" viewBox="0 0 40 40" fill="none" xmlns="http://www.w3.org/2000/svg">
<path fill-rule="evenodd" clip-rule="evenodd" d="M0 19.4C0 8.25282 8.7334 0 20 0C31.2666 0 40 8.25282 40 19.4C40 30.5473 31.2666 38.8001 20 38.8001C17.9763 38.8001 16.0348 38.5329 14.2106 38.0313C13.856 37.9337 13.4789 37.9613 13.1424 38.1097L9.17268 39.8621C8.13428 40.3205 6.96212 39.5821 6.92732 38.4473L6.8184 34.8897C6.805 34.4513 6.6078 34.0417 6.28112 33.7493C2.3896 30.2692 0 25.2308 0 19.4ZM13.8651 15.7527L7.99008 25.0735C7.42628 25.968 8.5258 26.976 9.36808 26.3368L15.6788 21.5474C16.1057 21.2234 16.6956 21.2217 17.1243 21.5432L21.7971 25.0478C23.1992 26.0995 25.2004 25.7302 26.135 24.2475L32.01 14.9266C32.5737 14.0321 31.4742 13.0241 30.6319 13.6633L24.3212 18.4527C23.8943 18.7767 23.3044 18.7784 22.8757 18.4568L18.203 14.9523C16.8008 13.9007 14.7996 14.2699 13.8651 15.7527Z" fill="url(#paint0_radial_7113_9443)"/>
<defs>
<radialGradient id="paint0_radial_7113_9443" cx="0" cy="0" r="1" gradientUnits="userSpaceOnUse" gradientTransform="translate(7.69898 39.7861) rotate(-57.0915) scale(43.5838)">
<stop stop-color="#0099FF"/>
<stop offset="0.609754" stop-color="#A033FF"/>
<stop offset="0.934823" stop-color="#FF5280"/>
<stop offset="1" stop-color="#FF7061"/>
</radialGradient>
</defs>
</svg>
