<svg width="25" height="24" viewBox="0 0 25 24" fill="none" xmlns="http://www.w3.org/2000/svg">
<path fill-rule="evenodd" clip-rule="evenodd" d="M12.5001 1.25C8.21986 1.25 4.75007 4.71979 4.75007 9V9.7041C4.75007 10.401 4.54378 11.0824 4.1572 11.6622L3.00859 13.3851C1.6755 15.3848 2.69321 18.1028 5.0118 18.7351C5.76741 18.9412 6.5294 19.1155 7.29581 19.2581L7.29771 19.2632C8.0667 21.3151 10.122 22.75 12.5 22.75C14.878 22.75 16.9333 21.3151 17.7023 19.2632L17.7042 19.2581C18.4706 19.1155 19.2327 18.9412 19.9883 18.7351C22.3069 18.1028 23.3246 15.3848 21.9915 13.3851L20.8429 11.6622C20.4564 11.0824 20.2501 10.401 20.2501 9.7041V9C20.2501 4.71979 16.7803 1.25 12.5001 1.25ZM15.8765 19.537C13.6335 19.805 11.3665 19.8049 9.12352 19.5369C9.83447 20.5585 11.071 21.25 12.5 21.25C13.929 21.25 15.1655 20.5585 15.8765 19.537ZM6.25007 9C6.25007 5.54822 9.04829 2.75 12.5001 2.75C15.9518 2.75 18.7501 5.54822 18.7501 9V9.7041C18.7501 10.6972 19.044 11.668 19.5949 12.4943L20.7435 14.2172C21.5086 15.3649 20.9245 16.925 19.5937 17.288C14.9494 18.5546 10.0507 18.5546 5.40647 17.288C4.07564 16.925 3.4915 15.3649 4.25667 14.2172L5.40527 12.4943C5.95612 11.668 6.25007 10.6972 6.25007 9.7041V9Z" fill="#2D2D2D"/>
</svg>
