<?xml version="1.0" encoding="UTF-8"?>
<svg id="Layer_2" data-name="Layer 2" xmlns="http://www.w3.org/2000/svg" xmlns:xlink="http://www.w3.org/1999/xlink" viewBox="0 0 24 19">
  <defs>
    <style>
      .cls-1 {
        fill: #fd9400;
      }

      .cls-2 {
        clip-path: url(#clippath);
      }

      .cls-3 {
        fill: none;
      }
    </style>
    <clipPath id="clippath">
      <rect class="cls-3" width="24" height="19"/>
    </clipPath>
  </defs>
  <g id="Layer_1-2" data-name="Layer 1">
    <g id="_01" data-name="01">
      <g class="cls-2">
        <g>
          <path class="cls-1" d="m15.07,14.94c-2.59,0-4.7-2.14-4.7-4.76s2.11-4.76,4.7-4.76,4.7,2.14,4.7,4.76-2.11,4.76-4.7,4.76Zm0-7.92c-1.72,0-3.12,1.42-3.12,3.16s1.4,3.16,3.12,3.16,3.12-1.42,3.12-3.16-1.4-3.16-3.12-3.16Z"/>
          <rect class="cls-1" x="3.78" y="4.2" width="2.71" height="1.59" rx=".79" ry=".79"/>
          <path class="cls-1" d="m20.82,1.52h-9.66v-.37c0-.54-.43-.97-.96-.97h-5.46c-.53,0-.96.44-.96.97v.37h-.6C1.62,1.52.35,2.81.35,4.39v11.57c0,1.58,1.27,2.87,2.83,2.87h17.65c1.56,0,2.83-1.28,2.83-2.87V4.39c0-1.58-1.27-2.87-2.83-2.87Zm1.25,14.43c0,.7-.56,1.26-1.25,1.26H3.18c-.69,0-1.25-.57-1.25-1.26V4.39c0-.7.56-1.26,1.25-1.26h17.65c.69,0,1.25.56,1.25,1.26v11.57Z"/>
        </g>
      </g>
    </g>
  </g>
</svg>