<svg width="34" height="33" viewBox="0 0 34 33" fill="none" xmlns="http://www.w3.org/2000/svg">
<path d="M10.4007 8.24234V9.24234C10.7482 9.24234 11.0708 9.06197 11.2527 8.76593L10.4007 8.24234ZM12.7606 4.40234V3.40234C12.4131 3.40234 12.0905 3.58272 11.9086 3.87876L12.7606 4.40234ZM21.5258 4.40234L22.3778 3.87876C22.1959 3.58272 21.8733 3.40234 21.5258 3.40234V4.40234ZM23.8857 8.24234L23.0337 8.76593C23.2157 9.06197 23.5382 9.24234 23.8857 9.24234V8.24234ZM4.6582 24.5623V11.4423H2.6582V24.5623H4.6582ZM7.02946 9.24234H10.4007V7.24234H7.02946V9.24234ZM11.2527 8.76593L13.6126 4.92593L11.9086 3.87876L9.54873 7.71876L11.2527 8.76593ZM12.7606 5.40234H21.5258V3.40234H12.7606V5.40234ZM20.6739 4.92593L23.0337 8.76593L24.7377 7.71876L22.3778 3.87876L20.6739 4.92593ZM23.8857 9.24234H27.257V7.24234H23.8857V9.24234ZM29.6282 11.4423V24.5623H31.6282V11.4423H29.6282ZM29.6282 24.5623C29.6282 25.7289 28.6163 26.7623 27.257 26.7623V28.7623C29.6214 28.7623 31.6282 26.9304 31.6282 24.5623H29.6282ZM27.257 9.24234C28.6163 9.24234 29.6282 10.2758 29.6282 11.4423H31.6282C31.6282 9.07426 29.6214 7.24234 27.257 7.24234V9.24234ZM4.6582 11.4423C4.6582 10.2758 5.67008 9.24234 7.02946 9.24234V7.24234C4.66505 7.24234 2.6582 9.07426 2.6582 11.4423H4.6582ZM7.02946 26.7623C5.67008 26.7623 4.6582 25.7289 4.6582 24.5623H2.6582C2.6582 26.9304 4.66504 28.7623 7.02946 28.7623V26.7623ZM21.2001 17.2023C21.2001 19.2525 19.4335 21.0023 17.1432 21.0023V23.0023C20.4386 23.0023 23.2001 20.4541 23.2001 17.2023H21.2001ZM17.1432 21.0023C14.8529 21.0023 13.0863 19.2525 13.0863 17.2023H11.0863C11.0863 20.4541 13.8479 23.0023 17.1432 23.0023V21.0023ZM13.0863 17.2023C13.0863 15.1521 14.8529 13.4023 17.1432 13.4023V11.4023C13.8479 11.4023 11.0863 13.9506 11.0863 17.2023H13.0863ZM17.1432 13.4023C19.4335 13.4023 21.2001 15.1521 21.2001 17.2023H23.2001C23.2001 13.9506 20.4386 11.4023 17.1432 11.4023V13.4023ZM27.257 26.7623H7.02946V28.7623H27.257V26.7623Z" fill="#fd0265"/>
</svg>
