<svg width="18" height="17" viewBox="0 0 18 17" fill="none" xmlns="http://www.w3.org/2000/svg">
<path fill-rule="evenodd" clip-rule="evenodd" d="M9.00033 16.8327C13.6027 16.8327 17.3337 13.1017 17.3337 8.49935C17.3337 3.89698 13.6027 0.166016 9.00033 0.166016C4.39795 0.166016 0.666992 3.89698 0.666992 8.49935C0.666992 13.1017 4.39795 16.8327 9.00033 16.8327ZM12.827 6.38309C13.0389 6.11062 12.9898 5.71795 12.7174 5.50603C12.4449 5.29411 12.0522 5.3432 11.8403 5.61566L8.50115 9.90888C8.4269 10.0043 8.28723 10.0167 8.19733 9.93583L6.0851 8.03482C5.82853 7.80391 5.43335 7.82471 5.20244 8.08127C4.97153 8.33784 4.99233 8.73302 5.24889 8.96394L7.36113 10.8649C7.9904 11.4313 8.96808 11.3446 9.48784 10.6763L12.827 6.38309Z" fill="#44AB4A"/>
</svg>
