<svg width="20" height="20" viewBox="0 0 20 20" fill="none" xmlns="http://www.w3.org/2000/svg">
<path d="M9.99999 18.0413C9.74166 18.0413 9.49166 18.008 9.28332 17.933C6.09999 16.8413 1.04166 12.9663 1.04166 7.24134C1.04166 4.32467 3.39999 1.95801 6.29999 1.95801C7.70832 1.95801 9.02499 2.50801 9.99999 3.49134C10.975 2.50801 12.2917 1.95801 13.7 1.95801C16.6 1.95801 18.9583 4.33301 18.9583 7.24134C18.9583 12.9747 13.9 16.8413 10.7167 17.933C10.5083 18.008 10.2583 18.0413 9.99999 18.0413ZM6.29999 3.20801C4.09166 3.20801 2.29166 5.01634 2.29166 7.24134C2.29166 12.933 7.76666 16.0997 9.69166 16.758C9.84166 16.808 10.1667 16.808 10.3167 16.758C12.2333 16.0997 17.7167 12.9413 17.7167 7.24134C17.7167 5.01634 15.9167 3.20801 13.7083 3.20801C12.4417 3.20801 11.2667 3.79967 10.5083 4.82467C10.275 5.14134 9.74166 5.14134 9.50832 4.82467C8.73332 3.79134 7.56666 3.20801 6.29999 3.20801Z" fill="#2D2D2D"/>
</svg>
