<svg width="20" height="20" viewBox="0 0 20 20" fill="none" xmlns="http://www.w3.org/2000/svg">
<path d="M15 8.95817C14.6583 8.95817 14.375 8.67484 14.375 8.33317V6.6665C14.375 4.0415 13.6333 2.2915 10 2.2915C6.36667 2.2915 5.625 4.0415 5.625 6.6665V8.33317C5.625 8.67484 5.34167 8.95817 5 8.95817C4.65833 8.95817 4.375 8.67484 4.375 8.33317V6.6665C4.375 4.24984 4.95833 1.0415 10 1.0415C15.0417 1.0415 15.625 4.24984 15.625 6.6665V8.33317C15.625 8.67484 15.3417 8.95817 15 8.95817Z" fill="#303030"/>
<path d="M9.99935 16.0417C8.50768 16.0417 7.29102 14.825 7.29102 13.3333C7.29102 11.8417 8.50768 10.625 9.99935 10.625C11.491 10.625 12.7077 11.8417 12.7077 13.3333C12.7077 14.825 11.491 16.0417 9.99935 16.0417ZM9.99935 11.875C9.19935 11.875 8.54102 12.5333 8.54102 13.3333C8.54102 14.1333 9.19935 14.7917 9.99935 14.7917C10.7993 14.7917 11.4577 14.1333 11.4577 13.3333C11.4577 12.5333 10.7993 11.875 9.99935 11.875Z" fill="#303030"/>
<path d="M14.166 18.9585H5.83268C2.15768 18.9585 1.04102 17.8418 1.04102 14.1668V12.5002C1.04102 8.82516 2.15768 7.7085 5.83268 7.7085H14.166C17.841 7.7085 18.9577 8.82516 18.9577 12.5002V14.1668C18.9577 17.8418 17.841 18.9585 14.166 18.9585ZM5.83268 8.9585C2.84935 8.9585 2.29102 9.52516 2.29102 12.5002V14.1668C2.29102 17.1418 2.84935 17.7085 5.83268 17.7085H14.166C17.1493 17.7085 17.7077 17.1418 17.7077 14.1668V12.5002C17.7077 9.52516 17.1493 8.9585 14.166 8.9585H5.83268Z" fill="#303030"/>
</svg>
