<svg width="25" height="24" viewBox="0 0 25 24" fill="none" xmlns="http://www.w3.org/2000/svg">
<rect x="6.5" y="2" width="12" height="12" rx="2" stroke="#454545" stroke-width="1.3"/>
<path d="M13.5 5L11.5 5" stroke="#454545" stroke-width="1.3" stroke-linecap="round" stroke-linejoin="round"/>
<path d="M5.93409 15.8284L4.38418 14.3154C4.1773 14.1135 3.89671 14 3.60414 14C2.83392 14 2.30079 14.751 2.57124 15.455L4.08841 19.4045C4.68814 20.9657 6.21702 22 7.92506 22H21.0513C21.8514 22 22.5 21.3668 22.5 20.5858C22.5 20.2107 22.3474 19.851 22.0757 19.5858L20.627 18.1716C19.8585 17.4214 18.8163 17 17.7296 17H8.83149C7.74475 17 6.70252 16.5786 5.93409 15.8284Z" stroke="#454545" stroke-width="1.3"/>
</svg>
