<svg width="25" height="24" viewBox="0 0 25 24" fill="none" xmlns="http://www.w3.org/2000/svg">
<path d="M14.5 19V7M14.5 19H16.5M14.5 19H9.5M14.5 7C14.5 4.79086 12.7091 3 10.5 3H6.5C4.29086 3 2.5 4.79086 2.5 7V15C2.5 16.8652 3.77667 18.4323 5.50384 18.875M14.5 7H17.7091C18.2172 7 18.7063 7.1934 19.077 7.54093L21.8679 10.1574C22.2712 10.5355 22.5 11.0636 22.5 11.6165V17C22.5 18.1046 21.6046 19 20.5 19M20.5 19C20.5 20.1046 19.6046 21 18.5 21C17.3954 21 16.5 20.1046 16.5 19M20.5 19C20.5 17.8954 19.6046 17 18.5 17C17.3954 17 16.5 17.8954 16.5 19M9.5 19C9.5 20.1046 8.60457 21 7.5 21C6.39543 21 5.5 20.1046 5.5 19C5.5 18.958 5.50129 18.9163 5.50384 18.875M9.5 19C9.5 17.8954 8.60457 17 7.5 17C6.43742 17 5.56838 17.8286 5.50384 18.875" stroke="#454545" stroke-width="1.3"/>
<path d="M10.5 8L8.5 8" stroke="#454545" stroke-width="1.3" stroke-linecap="round" stroke-linejoin="round"/>
<path d="M10.5 12L6.5 12" stroke="#454545" stroke-width="1.3" stroke-linecap="round" stroke-linejoin="round"/>
</svg>
