<svg width="25" height="24" viewBox="0 0 25 24" fill="none" xmlns="http://www.w3.org/2000/svg">
<path fill-rule="evenodd" clip-rule="evenodd" d="M18.5907 2.54877C18.0383 2.23946 17.4502 2.20831 16.8286 2.286C16.2381 2.3598 15.5198 2.54651 14.6565 2.7709L12.6382 3.2954C11.7753 3.51963 11.0568 3.70634 10.507 3.92891C9.92902 4.16293 9.42925 4.47736 9.10507 5.02195C8.77884 5.56998 8.74645 6.15584 8.82775 6.76777C8.90441 7.34473 9.09787 8.04488 9.32834 8.87901L9.8709 10.8429C10.1014 11.6775 10.2948 12.3775 10.5257 12.9139C10.7708 13.4835 11.0983 13.9684 11.6539 14.2795C12.2062 14.5888 12.7943 14.62 13.416 14.5423C14.0064 14.4685 14.7248 14.2818 15.5881 14.0574L17.6064 13.5329C18.4693 13.3086 19.1878 13.1219 19.7375 12.8994C20.3155 12.6653 20.8153 12.3509 21.1395 11.8063C21.4657 11.2583 21.4981 10.6724 21.4168 10.0605C21.3402 9.48355 21.1467 8.7834 20.9162 7.94926L20.3737 5.98536C20.1431 5.1508 19.9498 4.45076 19.7189 3.91434C19.4737 3.34477 19.1463 2.85989 18.5907 2.54877ZM14.9848 4.2354C15.9097 3.99503 16.5329 3.83463 17.0146 3.77442C17.4762 3.71673 17.6972 3.7676 17.8578 3.85754C18.0152 3.94567 18.1655 4.09931 18.3411 4.50734C18.5263 4.93768 18.6936 5.53684 18.9418 6.43548L19.4562 8.29754C19.7046 9.19641 19.8685 9.79611 19.9299 10.2581C19.9882 10.6968 19.936 10.8956 19.8506 11.0391C19.7631 11.186 19.6045 11.3349 19.1746 11.509C18.7269 11.6903 18.1048 11.8535 17.1796 12.0939L15.2598 12.5929C14.3348 12.8333 13.7117 12.9937 13.23 13.0539C12.7683 13.1116 12.5474 13.0607 12.3868 12.9707C12.2294 12.8826 12.0791 12.729 11.9035 12.3209C11.7183 11.8906 11.551 11.2914 11.3027 10.3928L10.7883 8.53074C10.54 7.63187 10.3761 7.03217 10.3147 6.57022C10.2564 6.13148 10.3086 5.93269 10.394 5.78921C10.4815 5.64227 10.64 5.49334 11.07 5.31928C11.5177 5.138 12.1398 4.97476 13.0649 4.73434L14.9848 4.2354Z" fill="#454545"/>
<path fill-rule="evenodd" clip-rule="evenodd" d="M3.70052 4.72469C3.30138 4.61396 2.88805 4.84775 2.77731 5.24688C2.66657 5.64602 2.90036 6.05936 3.2995 6.17009L5.00319 6.64278C5.42879 6.76086 5.74573 7.08236 5.85401 7.47427L7.80531 14.5374C7.73035 14.5521 7.65542 14.5692 7.58061 14.5887C5.60356 15.1025 4.39545 17.0913 4.93818 19.0558C5.47829 21.0108 7.53197 22.1384 9.50118 21.6266C11.2245 21.1788 12.3636 19.6102 12.2681 17.9139L20.6887 15.7256C21.0896 15.6214 21.3301 15.2119 21.2259 14.811C21.1217 14.4101 20.7123 14.1696 20.3114 14.2738L11.8732 16.4667C11.3649 15.4794 10.4313 14.7927 9.3667 14.5562L7.29985 7.07483C7.04672 6.1586 6.3211 5.45177 5.40422 5.19738L3.70052 4.72469ZM7.9579 16.0404C9.16963 15.7255 10.3856 16.4288 10.6978 17.5589C11.0074 18.6796 10.3278 19.862 9.12389 20.1748C7.91217 20.4897 6.69623 19.7864 6.38402 18.6563C6.07441 17.5357 6.75401 16.3533 7.9579 16.0404Z" fill="#454545"/>
</svg>
