<svg width="21" height="17" viewBox="0 0 21 17" fill="none" xmlns="http://www.w3.org/2000/svg">
<path d="M7.6866 0.570559C7.86033 0.570559 7.94719 0.657279 7.94719 0.830722L7.94719 8.37544C7.94719 9.93641 7.57803 11.3239 6.8397 12.538C6.10137 13.7955 5.14589 14.7711 3.97325 15.4649C2.75718 16.202 1.45425 16.5706 0.0644531 16.5706L0.0644528 12.538C1.15023 12.538 2.084 12.1261 2.86575 11.3023C3.60408 10.4784 3.97325 9.50281 3.97325 8.37544L0.325038 8.37544C0.151315 8.37544 0.0644524 8.28872 0.0644524 8.11527L0.0644517 0.830723C0.0644517 0.65728 0.151314 0.570559 0.325038 0.570559L7.6866 0.570559ZM19.8039 0.570558C19.9776 0.570558 20.0645 0.657278 20.0645 0.830721L20.0645 8.37544C20.0645 9.93641 19.6953 11.3239 18.957 12.538C18.2186 13.7955 17.2632 14.7711 16.0905 15.4649C14.8744 16.202 13.5715 16.5706 12.1817 16.5706L12.1817 12.538C13.2675 12.538 14.2013 12.1261 14.983 11.3023C15.7213 10.4784 16.0905 9.50281 16.0905 8.37544L12.4423 8.37544C12.2686 8.37544 12.1817 8.28872 12.1817 8.11527L12.1817 0.830722C12.1817 0.657279 12.2686 0.570558 12.4423 0.570558L19.8039 0.570558Z" fill="#93C8FF"/>
</svg>
