<svg width="21" height="17" viewBox="0 0 21 17" fill="none" xmlns="http://www.w3.org/2000/svg">
<path d="M13.3133 16.4294C13.1396 16.4294 13.0527 16.3427 13.0527 16.1693V8.62456C13.0527 7.06359 13.4219 5.67605 14.1602 4.46196C14.8985 3.20451 15.854 2.2289 17.0266 1.53513C18.2427 0.798006 19.5456 0.429443 20.9354 0.429443V4.46196C19.8496 4.46196 18.9159 4.87389 18.1341 5.69773C17.3958 6.52158 17.0266 7.49719 17.0266 8.62456H20.6748C20.8486 8.62456 20.9354 8.71129 20.9354 8.88473V16.1693C20.9354 16.3427 20.8486 16.4294 20.6748 16.4294H13.3133ZM1.19601 16.4294C1.02229 16.4294 0.935425 16.3427 0.935425 16.1693V8.62456C0.935425 7.06359 1.30459 5.67605 2.04292 4.46196C2.78124 3.20451 3.73673 2.2289 4.90937 1.53513C6.12544 0.798006 7.42837 0.429443 8.81816 0.429443V4.46196C7.73238 4.46196 6.79862 4.87389 6.01686 5.69773C5.27853 6.52158 4.90937 7.49719 4.90937 8.62456H8.55757C8.7313 8.62456 8.81816 8.71129 8.81816 8.88473V16.1693C8.81816 16.3427 8.7313 16.4294 8.55757 16.4294H1.19601Z" fill="#93C8FF"/>
</svg>
