<svg width="17" height="16" viewBox="0 0 17 16" fill="none" xmlns="http://www.w3.org/2000/svg">
<path fill-rule="evenodd" clip-rule="evenodd" d="M7.99996 1.83398C4.7783 1.83398 2.16663 4.44566 2.16663 7.66732C2.16663 10.889 4.7783 13.5007 7.99996 13.5007C11.2216 13.5007 13.8333 10.889 13.8333 7.66732C13.8333 4.44566 11.2216 1.83398 7.99996 1.83398ZM1.16663 7.66732C1.16663 3.89337 4.22601 0.833984 7.99996 0.833984C11.7739 0.833984 14.8333 3.89337 14.8333 7.66732C14.8333 11.4413 11.7739 14.5007 7.99996 14.5007C4.22601 14.5007 1.16663 11.4413 1.16663 7.66732ZM13.3131 12.9804C13.5083 12.7852 13.8249 12.7852 14.0202 12.9804L15.3535 14.3138C15.5488 14.509 15.5488 14.8256 15.3535 15.0209C15.1583 15.2161 14.8417 15.2161 14.6464 15.0209L13.3131 13.6875C13.1178 13.4923 13.1178 13.1757 13.3131 12.9804Z" fill="#454545"/>
</svg>
