<svg width="21" height="20" viewBox="0 0 21 20" fill="none" xmlns="http://www.w3.org/2000/svg">
<path fill-rule="evenodd" clip-rule="evenodd" d="M9.91661 2.29102C5.88953 2.29102 2.62494 5.55561 2.62494 9.58268C2.62494 13.6098 5.88953 16.8743 9.91661 16.8743C13.9437 16.8743 17.2083 13.6098 17.2083 9.58268C17.2083 5.55561 13.9437 2.29102 9.91661 2.29102ZM1.37494 9.58268C1.37494 4.86525 5.19917 1.04102 9.91661 1.04102C14.634 1.04102 18.4583 4.86525 18.4583 9.58268C18.4583 11.7164 17.6759 13.6675 16.3823 15.1645L19.1085 17.8907C19.3526 18.1348 19.3526 18.5305 19.1085 18.7746C18.8645 19.0187 18.4687 19.0187 18.2247 18.7746L15.4984 16.0484C14.0014 17.342 12.0504 18.1243 9.91661 18.1243C5.19917 18.1243 1.37494 14.3001 1.37494 9.58268Z" fill="#2D2D2D"/>
</svg>
