<svg width="22" height="22" viewBox="0 0 22 22" fill="none" xmlns="http://www.w3.org/2000/svg">
<path d="M15.5855 8.5289C15.1633 8.04795 14.527 7.76849 13.6449 7.671V7.17706C13.6449 6.28666 13.2795 5.42876 12.6368 4.83083C11.9878 4.2199 11.1436 3.93394 10.2678 4.01843C8.76195 4.16791 7.49553 5.66923 7.49553 7.29404V7.671C6.61344 7.76849 5.97708 8.04795 5.55495 8.5289C4.94379 9.23082 4.96269 10.1667 5.032 10.8166L5.47304 14.4367C5.60535 15.7041 6.1031 17.0039 8.81235 17.0039H12.3281C15.0373 17.0039 15.5351 15.7041 15.6674 14.4432L16.1084 10.8101C16.1777 10.1667 16.1903 9.23082 15.5855 8.5289ZM10.356 4.92182C10.9861 4.86333 11.5846 5.0648 12.0509 5.50025C12.5108 5.9292 12.7691 6.54013 12.7691 7.17706V7.632H8.37131V7.29404C8.37131 6.13718 9.29749 5.02581 10.356 4.92182ZM8.3146 11.2521H8.3083C7.96177 11.2521 7.67824 10.9596 7.67824 10.6022C7.67824 10.2447 7.96177 9.95223 8.3083 9.95223C8.66114 9.95223 8.94466 10.2447 8.94466 10.6022C8.94466 10.9596 8.66114 11.2521 8.3146 11.2521ZM12.725 11.2521H12.7187C12.3722 11.2521 12.0887 10.9596 12.0887 10.6022C12.0887 10.2447 12.3722 9.95223 12.7187 9.95223C13.0715 9.95223 13.3551 10.2447 13.3551 10.6022C13.3551 10.9596 13.0715 11.2521 12.725 11.2521Z" fill="#FF4A24"/>
<path fill-rule="evenodd" clip-rule="evenodd" d="M10.9995 1.62963C16.1746 1.62963 20.3699 5.82489 20.3699 11C20.3699 16.1751 16.1746 20.3704 10.9995 20.3704C5.8244 20.3704 1.62914 16.1751 1.62914 11C1.62914 10.55 1.26434 10.1852 0.814327 10.1852C0.364317 10.1852 -0.000488281 10.55 -0.000488281 11C-0.000488281 17.0751 4.92438 22 10.9995 22C17.0746 22 21.9995 17.0751 21.9995 11C21.9995 4.92487 17.0746 0 10.9995 0C7.84268 0 4.99708 1.33005 2.99174 3.45852V0.814815C2.99174 0.364805 2.62693 0 2.17692 0C1.72691 0 1.36211 0.364805 1.36211 0.814815V5.90741C1.36211 6.27607 1.60964 6.5988 1.9657 6.69437C2.32176 6.78994 2.69763 6.63452 2.88223 6.31541C4.50364 3.51247 7.53218 1.62963 10.9995 1.62963Z" fill="#FF4A24"/>
</svg>
