<svg width="25" height="24" viewBox="0 0 25 24" fill="none" xmlns="http://www.w3.org/2000/svg">
<path fill-rule="evenodd" clip-rule="evenodd" d="M2.74875 2.29266C2.35798 2.15527 1.92983 2.36068 1.79245 2.75145C1.65506 3.14221 1.86047 3.57036 2.25123 3.70775L2.51244 3.79958C3.18005 4.0343 3.6188 4.18985 3.94165 4.34826C4.24487 4.49704 4.37854 4.61747 4.4666 4.74634C4.55686 4.87842 4.62657 5.05984 4.6659 5.42319C4.70705 5.8034 4.70807 6.29862 4.70807 7.03856V9.7602C4.70807 11.2127 4.7217 12.2601 4.85875 13.0603C5.00508 13.9146 5.29721 14.5263 5.84344 15.1024C6.4373 15.7288 7.19011 16.0015 8.08635 16.1285C8.94458 16.2502 10.0344 16.2502 11.3801 16.2502L16.7859 16.2502C17.5275 16.2502 18.1516 16.2502 18.6566 16.1884C19.1923 16.1229 19.6809 15.9796 20.1074 15.632C20.5339 15.2844 20.7729 14.8349 20.9453 14.3234C21.1077 13.8413 21.2337 13.2301 21.3834 12.5037L21.8923 10.0344L21.8933 10.0298L21.9037 9.97747C22.0684 9.15259 22.2069 8.4587 22.2413 7.90058C22.2775 7.31438 22.2108 6.73637 21.8289 6.23998C21.594 5.93456 21.2636 5.76166 20.9631 5.65607C20.6567 5.54838 20.3101 5.48608 19.9604 5.44698C19.2733 5.37018 18.4386 5.37019 17.62 5.3702L6.16787 5.3702C6.16459 5.33345 6.16103 5.29731 6.15718 5.26177C6.10345 4.76539 5.98704 4.31268 5.70506 3.90003C5.42088 3.48417 5.04303 3.21784 4.6024 3.00163C4.19031 2.79943 3.66668 2.61536 3.05015 2.39862L2.74875 2.29266ZM6.20806 6.8702H17.5888C18.4452 6.8702 19.1989 6.87121 19.7937 6.9377C20.0893 6.97074 20.3105 7.01664 20.4659 7.07125C20.5929 7.11589 20.6359 7.15234 20.6421 7.15762C20.642 7.15751 20.6424 7.15783 20.6421 7.15762C20.7035 7.23902 20.7702 7.38672 20.7442 7.80818C20.7168 8.25174 20.6003 8.844 20.4227 9.73393L20.4223 9.73615L19.9234 12.1563C19.7621 12.9391 19.6535 13.4595 19.5238 13.8444C19.4007 14.2097 19.285 14.3672 19.1598 14.4692C19.0346 14.5712 18.8571 14.6527 18.4744 14.6996C18.0712 14.7489 17.5396 14.7502 16.7404 14.7502H11.4375C10.0207 14.7502 9.03762 14.7484 8.29695 14.6434C7.58214 14.542 7.20451 14.3578 6.93197 14.0704C6.61181 13.7327 6.43912 13.402 6.33722 12.8071C6.22606 12.1581 6.20807 11.2492 6.20807 9.7602L6.20806 6.8702Z" fill="#2D2D2D"/>
<path fill-rule="evenodd" clip-rule="evenodd" d="M7.99999 21.7502C6.75735 21.7502 5.74999 20.7428 5.74999 19.5002C5.74999 18.2576 6.75735 17.2502 7.99999 17.2502C9.24263 17.2502 10.25 18.2576 10.25 19.5002C10.25 20.7428 9.24263 21.7502 7.99999 21.7502ZM7.24999 19.5002C7.24999 19.9144 7.58578 20.2502 7.99999 20.2502C8.4142 20.2502 8.74999 19.9144 8.74999 19.5002C8.74999 19.086 8.4142 18.7502 7.99999 18.7502C7.58578 18.7502 7.24999 19.086 7.24999 19.5002Z" fill="#2D2D2D"/>
<path fill-rule="evenodd" clip-rule="evenodd" d="M17 21.7503C15.7573 21.7503 14.75 20.7429 14.75 19.5003C14.75 18.2576 15.7573 17.2503 17 17.2503C18.2426 17.2503 19.25 18.2576 19.25 19.5003C19.25 20.7429 18.2426 21.7503 17 21.7503ZM16.25 19.5003C16.25 19.9145 16.5858 20.2503 17 20.2503C17.4142 20.2503 17.75 19.9145 17.75 19.5003C17.75 19.0861 17.4142 18.7503 17 18.7503C16.5858 18.7503 16.25 19.0861 16.25 19.5003Z" fill="#2D2D2D"/>
</svg>
