<?xml version="1.0"?>
<svg width="122" height="122" viewBox="0 0 122 122" fill="none" xmlns="http://www.w3.org/2000/svg"><title><!----><!----></title><path fill-rule="evenodd" clip-rule="evenodd" d="M0 0H122L0 122V0Z" fill="#FF0211"></path><path fill-rule="evenodd" clip-rule="evenodd" d="M19.6967 58.6067C19.0862 58.527 18.4226 58.6133 17.706 58.8655C16.9893 59.1176 16.3854 59.4892 15.8944 59.9803C15.6024 60.2723 15.3469 60.6008 15.1279 60.9657C14.9089 61.3307 14.7563 61.709 14.67 62.1005C14.5838 62.492 14.5871 62.8868 14.68 63.285C14.7729 63.6831 14.9919 64.0548 15.3369 64.3998C15.6555 64.7183 15.9939 64.9241 16.3522 65.017C16.7106 65.1099 17.0855 65.1198 17.477 65.0468C17.8685 64.9738 18.2899 64.8312 18.7412 64.6188C19.1924 64.4065 19.6768 64.1609 20.1944 63.8822C20.7917 63.577 21.4254 63.275 22.0956 62.9764C22.7659 62.6778 23.456 62.4787 24.166 62.3792C24.8761 62.2796 25.5928 62.3327 26.3161 62.5384C27.0394 62.7442 27.7461 63.1921 28.4363 63.8822C29.1928 64.6387 29.7137 65.4383 29.999 66.2811C30.2844 67.1239 30.3806 67.9633 30.2877 68.7994C30.1948 69.6356 29.9293 70.4584 29.4914 71.268C29.0534 72.0776 28.4893 72.8274 27.7992 73.5176C26.8834 74.4333 25.8184 75.16 24.604 75.6975C23.3896 76.235 22.1719 76.4507 20.9509 76.3445L21.0704 72.8805C21.8932 73.0133 22.7327 72.9303 23.5887 72.6317C24.4448 72.3331 25.1515 71.9051 25.7089 71.3476C26.0009 71.0557 26.263 70.7205 26.4952 70.3423C26.7275 69.964 26.8801 69.5659 26.9531 69.1478C27.0261 68.7298 27.0095 68.315 26.9034 67.9036C26.7972 67.4922 26.5517 67.094 26.1668 66.7091C25.7952 66.3375 25.4003 66.1152 24.9823 66.0422C24.5642 65.9692 24.1196 65.9891 23.6484 66.1019C23.1773 66.2147 22.6763 66.4039 22.1454 66.6693L20.4731 67.5054C19.9157 67.7974 19.3318 68.0629 18.7213 68.3017C18.1108 68.5406 17.4837 68.6767 16.84 68.7099C16.1963 68.743 15.546 68.6435 14.889 68.4112C14.2321 68.179 13.5718 67.7311 12.9082 67.0675C12.1915 66.3508 11.7237 65.5843 11.5047 64.7681C11.2857 63.9519 11.2492 63.1324 11.3952 62.3095C11.5412 61.4866 11.8398 60.6837 12.2911 59.9007C12.7423 59.1176 13.2864 58.4076 13.9235 57.7705C14.6402 57.0539 15.4929 56.4533 16.4816 55.9689C17.4704 55.4845 18.489 55.2223 19.5375 55.1825L19.6967 58.6067ZM27.9235 58.5023C26.7953 57.3742 25.9659 56.1664 25.435 54.8791C24.9041 53.5917 24.6553 52.2944 24.6884 50.9871C24.7216 49.6798 25.0269 48.3924 25.6042 47.125C26.1815 45.8575 27.0143 44.6796 28.1026 43.5913C29.2042 42.4898 30.392 41.647 31.6661 41.0631C32.9402 40.4791 34.2342 40.1672 35.5481 40.1274C36.8621 40.0876 38.1627 40.3331 39.4501 40.864C40.7374 41.3949 41.9452 42.2243 43.0733 43.3525C44.1748 44.454 44.991 45.6485 45.5219 46.9358C46.0528 48.2232 46.3083 49.5338 46.2884 50.8676C46.2685 52.2015 45.9765 53.5154 45.4124 54.8094C44.8484 56.1034 44.0156 57.3012 42.914 58.4027C41.8257 59.491 40.6379 60.3139 39.3505 60.8713C38.0631 61.4287 36.7559 61.7141 35.4287 61.7273C34.1015 61.7406 32.7942 61.4818 31.5069 60.9509C30.2195 60.42 29.025 59.6038 27.9235 58.5023ZM30.6508 55.7748C31.4073 56.5313 32.2169 57.1087 33.0796 57.5068C33.9423 57.905 34.8215 58.1206 35.7174 58.1538C36.6132 58.187 37.4858 58.0377 38.3352 57.7059C39.1846 57.3741 39.9677 56.8499 40.6843 56.1332C41.401 55.4165 41.9286 54.6302 42.267 53.7741C42.6055 52.9181 42.7581 52.0421 42.7249 51.1463C42.6917 50.2504 42.4761 49.3712 42.0779 48.5085C41.6797 47.6458 41.1024 46.8363 40.3459 46.0798C39.616 45.3498 38.823 44.7891 37.9669 44.3976C37.1109 44.006 36.2383 43.7904 35.3491 43.7506C34.4598 43.7107 33.5839 43.8567 32.7212 44.1885C31.8586 44.5203 31.0623 45.0512 30.3323 45.7811C29.6024 46.5111 29.0748 47.3041 28.7496 48.1601C28.4245 49.0162 28.2818 49.8888 28.3216 50.778C28.3614 51.6672 28.5771 52.5398 28.9686 53.3959C29.3601 54.2519 29.9209 55.0449 30.6508 55.7748ZM39.0967 33.3141L41.6051 30.8057L53.4701 42.6707L59.4623 36.6785L61.692 38.9081L53.1914 47.4088L39.0967 33.3141ZM49.8717 22.539L54.8685 17.5421C55.7843 16.6264 56.8261 15.8234 57.994 15.1333C59.162 14.4431 60.3929 14.0019 61.6869 13.8094C62.981 13.617 64.3081 13.7364 65.6685 14.1678C67.0289 14.5991 68.3726 15.4783 69.6998 16.8055C70.9341 18.0398 71.7636 19.3338 72.1883 20.6875C72.613 22.0413 72.7391 23.3751 72.5665 24.689C72.394 26.0029 71.9793 27.2604 71.3223 28.4615C70.6653 29.6626 69.879 30.7211 68.9632 31.6368L63.9664 36.6337L49.8717 22.539ZM66.3753 29.8452C67.0256 29.1949 67.5996 28.4682 68.0973 27.6653C68.595 26.8623 68.9235 26.0163 69.0827 25.127C69.242 24.2378 69.1756 23.3154 68.8837 22.3599C68.5917 21.4043 67.9679 20.4487 67.0123 19.4931C66.0037 18.4845 65.0149 17.8275 64.0461 17.5223C63.0772 17.217 62.1515 17.1473 61.2689 17.3132C60.3863 17.4791 59.5535 17.8209 58.7705 18.3385C57.9875 18.8561 57.2708 19.44 56.6205 20.0904L54.5301 22.1807L64.285 31.9355L66.3753 29.8452Z" fill="white"></path></svg>