<svg width="40" height="40" viewBox="0 0 40 40" fill="none" xmlns="http://www.w3.org/2000/svg">
<path fill-rule="evenodd" clip-rule="evenodd" d="M15.4167 3.33301C15.4167 2.64265 15.9763 2.08301 16.6667 2.08301H23.3333C24.0237 2.08301 24.5833 2.64265 24.5833 3.33301C24.5833 4.02336 24.0237 4.58301 23.3333 4.58301H16.6667C15.9763 4.58301 15.4167 4.02336 15.4167 3.33301ZM20 7.91634C12.4061 7.91634 6.25 14.0724 6.25 21.6663C6.25 29.2603 12.4061 35.4163 20 35.4163C27.5939 35.4163 33.75 29.2603 33.75 21.6663C33.75 14.0724 27.5939 7.91634 20 7.91634ZM3.75 21.6663C3.75 12.6917 11.0254 5.41634 20 5.41634C28.9746 5.41634 36.25 12.6917 36.25 21.6663C36.25 30.641 28.9746 37.9163 20 37.9163C11.0254 37.9163 3.75 30.641 3.75 21.6663ZM20 13.7497C20.6904 13.7497 21.25 14.3093 21.25 14.9997V21.6663C21.25 22.3567 20.6904 22.9163 20 22.9163C19.3096 22.9163 18.75 22.3567 18.75 21.6663V14.9997C18.75 14.3093 19.3096 13.7497 20 13.7497Z" fill="#2D2D2D"/>
</svg>
