<svg width="21" height="20" viewBox="0 0 21 20" fill="none" xmlns="http://www.w3.org/2000/svg">
<path d="M17.1667 10V15C17.1667 16.8409 15.6743 18.3333 13.8333 18.3333H7.16668C5.32573 18.3333 3.83334 16.8409 3.83334 15V10" stroke="#282460" stroke-width="1.5" stroke-linejoin="round"/>
<path d="M14.4739 1.66699H6.52604C5.01158 1.66699 3.64969 2.70429 3.08723 4.2862L2.45558 6.06272C2.26438 6.60049 2.13221 7.17594 2.27167 7.72939C2.60196 9.04012 3.67352 10.0003 4.94443 10.0003C6.47856 10.0003 7.72221 8.60122 7.72221 6.87533C7.72221 8.60122 8.96586 10.0003 10.5 10.0003C12.0341 10.0003 13.2778 8.60122 13.2778 6.87533C13.2778 8.60122 14.5214 10.0003 16.0555 10.0003C17.3265 10.0003 18.398 9.04012 18.7283 7.72939C18.8678 7.17594 18.7356 6.60049 18.5444 6.06272L17.9127 4.2862C17.3503 2.70429 15.9884 1.66699 14.4739 1.66699Z" stroke="#282460" stroke-width="1.5" stroke-linejoin="round"/>
<path d="M8 15.833C8 14.4523 9.11929 13.333 10.5 13.333C11.8807 13.333 13 14.4523 13 15.833V18.333H8V15.833Z" stroke="#282460" stroke-width="1.5" stroke-linejoin="round"/>
</svg>
