<?xml version="1.0"?>
<svg xmlns="http://www.w3.org/2000/svg" xmlns:xlink="http://www.w3.org/1999/xlink" xmlns:svgjs="http://svgjs.com/svgjs" version="1.1" width="26" height="26" x="0" y="0" viewBox="0 0 512 512" style="enable-background:new 0 0 512 512" xml:space="preserve"><g><g xmlns="http://www.w3.org/2000/svg"><g><path d="m288 136h208v240h-32v64l-64-64h-176v-72z" fill="#ff9811" data-original="#ff9811" style=""/><path d="m288 64v240h-176l-64 64v-64h-32v-240z" fill="#ffda44" data-original="#ffda44" style=""/></g><g><path d="m496 128h-200v-64a8 8 0 0 0 -8-8h-272a8 8 0 0 0 -8 8v240a8 8 0 0 0 8 8h24v56a8 8 0 0 0 13.66 5.66l61.65-61.66h100.69v64a8 8 0 0 0 8 8h172.69l61.65 61.66a8 8 0 0 0 13.66-5.66v-56h24a8 8 0 0 0 8-8v-240a8 8 0 0 0 -8-8zm-384 168a8.008 8.008 0 0 0 -5.66 2.34l-50.34 50.35v-44.69a8 8 0 0 0 -8-8h-24v-224h256v224zm376 72h-24a8 8 0 0 0 -8 8v44.69l-50.34-50.35a8.008 8.008 0 0 0 -5.66-2.34h-168v-56h56a8 8 0 0 0 8-8v-160h192z" fill="#000000" data-original="#000000" style=""/><path d="m216 128h-56v-8a8 8 0 0 0 -16 0v8h-56a8 8 0 0 0 0 16h32.28c1.51 21.91 9.18 41.75 20.93 57.03-10.5 9.41-23.34 14.97-37.21 14.97a8 8 0 0 0 0 16c18 0 34.62-7.17 48-19.25 13.38 12.08 30 19.25 48 19.25a8 8 0 0 0 0-16c-13.87 0-26.71-5.56-37.21-14.97 11.75-15.28 19.42-35.12 20.93-57.03h32.28a8 8 0 0 0 0-16zm-64 60.83a90.348 90.348 0 0 1 -15.68-44.83h31.36a90.348 90.348 0 0 1 -15.68 44.83z" fill="#000000" data-original="#000000" style=""/><path d="m333.309 311.534a8 8 0 0 0 10.225-4.843l12.389-34.691h40.154l12.389 34.691a8 8 0 0 0 15.068-5.382l-40-112a8 8 0 0 0 -15.068 0l-40 112a8 8 0 0 0 4.843 10.225zm42.691-95.748 14.362 40.214h-28.724z" fill="#000000" data-original="#000000" style=""/></g></g></g></svg>
