<svg width="20" height="20" viewBox="0 0 20 20" fill="none" xmlns="http://www.w3.org/2000/svg">
<g clip-path="url(#clip0_861_63022)">
<path d="M15.8833 15.5583L14.1 12L12.3167 15.5583M12.6417 14.925H15.575" stroke="#C22026" stroke-width="1.5" stroke-linecap="round" stroke-linejoin="round"/>
<path d="M7.50829 4.87484H4.12496M5.80829 4.30817V4.87484M14.1 18.3332C13.5439 18.3331 12.9933 18.2234 12.4797 18.0105C11.966 17.7977 11.4993 17.4857 11.1062 17.0924C10.7131 16.6992 10.4013 16.2323 10.1886 15.7186C9.97593 15.2048 9.86652 14.6542 9.86663 14.0982C9.86674 13.5421 9.97636 12.9916 10.1893 12.4779C10.4021 11.9642 10.7141 11.4975 11.1074 11.1044C11.5006 10.7113 11.9675 10.3995 12.4812 10.1868C12.995 9.97414 13.5456 9.86473 14.1016 9.86484C15.2246 9.86506 16.3015 10.3114 17.0954 11.1056C17.8893 11.8998 18.3352 12.9769 18.335 14.0998C18.3347 15.2228 17.8884 16.2997 17.0942 17.0936C16.3 17.8875 15.2229 18.3334 14.1 18.3332ZM4.18329 1.6665H7.44996C9.17496 1.6665 10.0083 2.49984 9.96663 4.18317V7.44984C10.0083 9.17484 9.17496 10.0082 7.44996 9.9665H4.18329C2.49996 9.99984 1.66663 9.1665 1.66663 7.4415V4.17484C1.66663 2.49984 2.49996 1.6665 4.18329 1.6665Z" stroke="#C22026" stroke-width="1.5" stroke-linecap="round" stroke-linejoin="round"/>
<path d="M6.65837 4.8667C6.65837 6.32503 5.5167 7.50837 4.1167 7.50837" stroke="#C22026" stroke-width="1.5" stroke-linecap="round" stroke-linejoin="round"/>
<path d="M7.50829 7.50817C6.89996 7.50817 6.34996 7.18317 5.96663 6.6665M1.66663 12.4998C1.66663 15.7248 4.27496 18.3332 7.49996 18.3332L6.62496 16.8748M18.3333 7.49984C18.3333 4.27484 15.725 1.6665 12.5 1.6665L13.375 3.12484" stroke="#C22026" stroke-width="1.5" stroke-linecap="round" stroke-linejoin="round"/>
</g>
<defs>
<clipPath id="clip0_861_63022">
<rect width="20" height="20" fill="white"/>
</clipPath>
</defs>
</svg>
