<svg width="20" height="20" viewBox="0 0 20 20" fill="none" xmlns="http://www.w3.org/2000/svg">
<path fill-rule="evenodd" clip-rule="evenodd" d="M10 1.04102C7.8139 1.04102 6.0417 2.81322 6.0417 4.99935C6.0417 7.18548 7.8139 8.95768 10 8.95768C12.1862 8.95768 13.9584 7.18548 13.9584 4.99935C13.9584 2.81322 12.1862 1.04102 10 1.04102ZM7.2917 4.99935C7.2917 3.50358 8.50426 2.29102 10 2.29102C11.4958 2.29102 12.7084 3.50358 12.7084 4.99935C12.7084 6.49512 11.4958 7.70768 10 7.70768C8.50426 7.70768 7.2917 6.49512 7.2917 4.99935Z" fill="#2D2D2D"/>
<path fill-rule="evenodd" clip-rule="evenodd" d="M10 10.2077C8.07207 10.2077 6.2958 10.6459 4.97957 11.3863C3.68293 12.1157 2.70836 13.2211 2.70836 14.5827L2.70831 14.6676C2.70737 15.6359 2.70619 16.851 3.77204 17.719C4.2966 18.1461 5.03043 18.4499 6.02187 18.6506C7.01608 18.8518 8.31188 18.9577 10 18.9577C11.6882 18.9577 12.984 18.8518 13.9782 18.6506C14.9696 18.4499 15.7035 18.1461 16.228 17.719C17.2939 16.851 17.2927 15.6359 17.2917 14.6676L17.2917 14.5827C17.2917 13.2211 16.3171 12.1157 15.0205 11.3863C13.7043 10.6459 11.928 10.2077 10 10.2077ZM3.95836 14.5827C3.95836 13.8732 4.47618 13.1036 5.5924 12.4758C6.68903 11.8589 8.24609 11.4577 10 11.4577C11.754 11.4577 13.311 11.8589 14.4077 12.4758C15.5239 13.1036 16.0417 13.8732 16.0417 14.5827C16.0417 15.6725 16.0081 16.286 15.4387 16.7497C15.1299 17.0011 14.6138 17.2466 13.7302 17.4254C12.8494 17.6037 11.6452 17.7077 10 17.7077C8.35484 17.7077 7.15065 17.6037 6.26986 17.4254C5.3863 17.2466 4.87013 17.0011 4.56135 16.7497C3.99196 16.286 3.95836 15.6725 3.95836 14.5827Z" fill="#2D2D2D"/>
</svg>
