<svg width="39" height="33" viewBox="0 0 39 33" fill="none" xmlns="http://www.w3.org/2000/svg">
<g clip-path="url(#clip0_341_27166)">
<path d="M36.2748 18.0976L35.2645 14.7829C35.5407 14.7347 35.7479 14.5337 35.7479 14.2929V13.7585C35.7479 12.5981 34.597 11.6541 33.1823 11.6541H28.5805V10.5518C28.5805 9.98081 28.0142 9.51631 27.3181 9.51631H18.7614L23.9612 7.81031C24.2745 7.70756 24.4268 7.41593 24.3015 7.159C24.1763 6.90212 23.8209 6.77706 23.5075 6.87987L19.2499 8.27668C20.5473 7.59394 21.8309 6.8425 22.3195 6.317C23.2709 5.29393 23.0299 3.82681 21.7826 3.0465C20.5353 2.26612 18.7467 2.46381 17.7953 3.48687C17.1002 4.2345 16.1831 6.33519 15.5895 7.8155C14.9959 6.33531 14.0788 4.2345 13.3837 3.48687C12.4325 2.46381 10.6437 2.26625 9.39639 3.0465C8.1491 3.82675 7.90823 5.29387 8.8595 6.317C9.34816 6.84256 10.6316 7.59394 11.9291 8.27668L7.67156 6.87987C7.35816 6.77693 7.00277 6.90206 6.8775 7.159C6.75215 7.41593 6.90455 7.70756 7.2178 7.81031L12.4176 9.51631H3.86094C3.16479 9.51631 2.59849 9.98081 2.59849 10.5518V19.6374C2.59849 19.9141 2.87196 20.1385 3.20937 20.1385C3.5467 20.1385 3.82025 19.9142 3.82025 19.6374V10.5518C3.82025 10.5334 3.83847 10.5184 3.86094 10.5184H27.318C27.3405 10.5184 27.3587 10.5334 27.3587 10.5518V19.6376C27.3587 19.9142 27.6322 20.1386 27.9696 20.1386C28.3069 20.1386 28.5805 19.9143 28.5805 19.6376V19.0696H35.7863C35.787 19.0696 35.7875 19.0697 35.7882 19.0697C35.7889 19.0697 35.7895 19.0696 35.7902 19.0696C36.6768 19.0702 37.4296 19.5476 37.6881 20.2053H35.7886C35.4513 20.2053 35.1777 20.4296 35.1777 20.7064V21.7752C35.1777 22.6409 36.0364 23.3452 37.0918 23.3452H37.7841V25.5497H36.1868C35.6621 24.3071 34.2219 23.4119 32.5307 23.4119C30.8395 23.4119 29.3991 24.3071 28.8745 25.5497H28.5804V21.7752C28.5804 21.4985 28.3069 21.2741 27.9695 21.2741C27.6322 21.2741 27.3586 21.4984 27.3586 21.7752V25.5497H14.6846C14.1599 24.3071 12.7196 23.4119 11.0284 23.4119C9.33719 23.4119 7.89688 24.307 7.37225 25.5497H3.86094C3.83847 25.5497 3.82025 25.5347 3.82025 25.5163V24.414H6.46732C6.80465 24.414 7.0782 24.1897 7.0782 23.9129C7.0782 23.6362 6.80473 23.4119 6.46732 23.4119H0.603072C0.265741 23.4119 -0.0078125 23.6362 -0.0078125 23.9129C-0.0078125 24.1897 0.265664 24.414 0.603072 24.414H2.59856V25.5163C2.59856 26.0873 3.16487 26.5518 3.86102 26.5518H7.16073C7.16057 26.5629 7.15966 26.574 7.15966 26.5852C7.15966 28.3349 8.89524 29.7584 11.0284 29.7584C13.1616 29.7584 14.8972 28.3349 14.8972 26.5852C14.8972 26.5739 14.8963 26.5629 14.8961 26.5518H28.6629C28.6628 26.5629 28.6618 26.574 28.6618 26.5852C28.6618 28.3349 30.3974 29.7584 32.5306 29.7584C34.6638 29.7584 36.3994 28.3349 36.3994 26.5852C36.3994 26.5739 36.3984 26.5629 36.3983 26.5518H38.3949C38.7323 26.5518 39.0058 26.3275 39.0058 26.0507V20.7063C39.0059 19.3867 37.8189 18.2903 36.2748 18.0976ZM13.1669 7.73012C10.7573 6.50193 10.0426 5.93687 9.83095 5.70925C9.28819 5.12556 9.42565 4.2885 10.1374 3.84331C10.4307 3.65981 10.7765 3.57112 11.1198 3.57112C11.6091 3.57112 12.0933 3.7515 12.4123 4.09462C13.0033 4.73012 13.9287 6.86906 14.5396 8.41037C14.1273 8.21125 13.6534 7.97818 13.1669 7.73012ZM16.6395 8.41031C17.2505 6.86906 18.1759 4.73018 18.7668 4.09456C19.3095 3.51087 20.3301 3.39818 21.0417 3.84331C21.7534 4.2885 21.8908 5.12556 21.3481 5.70925C21.1365 5.93681 20.4217 6.50193 18.0122 7.73006C17.5259 7.97806 17.0519 8.21118 16.6395 8.41031ZM28.5805 12.6561H33.1823C33.9234 12.6561 34.5262 13.1506 34.5262 13.7584V13.7918H28.5805V12.6561ZM28.5805 18.0674V14.7939H34.0086L35.0063 18.0674H28.5805ZM11.0284 28.7564C9.56883 28.7564 8.38135 27.7824 8.38135 26.5852C8.38135 25.388 9.56883 24.414 11.0284 24.414C12.488 24.414 13.6755 25.388 13.6755 26.5852C13.6755 27.7824 12.488 28.7564 11.0284 28.7564ZM32.5308 28.7564C31.0712 28.7564 29.8837 27.7824 29.8837 26.5852C29.8837 25.388 31.0712 24.414 32.5308 24.414C33.9903 24.414 35.1778 25.388 35.1778 26.5852C35.1778 27.7824 33.9903 28.7564 32.5308 28.7564ZM37.7842 22.343H37.0919C36.7101 22.343 36.3995 22.0882 36.3995 21.7751V21.2072H37.7841V22.343H37.7842Z" fill="white"/>
<path d="M11.0281 25.5498C10.3319 25.5498 9.76562 26.0143 9.76562 26.5853C9.76562 27.1563 10.3319 27.6208 11.0281 27.6208C11.7242 27.6208 12.2905 27.1563 12.2905 26.5853C12.2905 26.0143 11.7242 25.5498 11.0281 25.5498Z" fill="white"/>
<path d="M32.532 25.5498C31.8358 25.5498 31.2695 26.0143 31.2695 26.5853C31.2695 27.1563 31.8358 27.6208 32.532 27.6208C33.2281 27.6208 33.7945 27.1563 33.7945 26.5853C33.7945 26.0143 33.2281 25.5498 32.532 25.5498Z" fill="white"/>
<path d="M25.3639 23.4121H16.2417C15.9044 23.4121 15.6309 23.6364 15.6309 23.9132C15.6309 24.1899 15.9043 24.4142 16.2417 24.4142H25.3639C25.7013 24.4142 25.9748 24.1899 25.9748 23.9132C25.9748 23.6364 25.7013 23.4121 25.3639 23.4121Z" fill="white"/>
<path d="M9.72485 21.2744H1.90581C1.56847 21.2744 1.29492 21.4987 1.29492 21.7755C1.29492 22.0522 1.5684 22.2765 1.90581 22.2765H9.72485C10.0622 22.2765 10.3357 22.0522 10.3357 21.7755C10.3357 21.4987 10.0622 21.2744 9.72485 21.2744Z" fill="white"/>
<path d="M9.72507 13.792H7.1187C6.78137 13.792 6.50781 14.0163 6.50781 14.2931V18.5686C6.50781 18.8453 6.78129 19.0697 7.1187 19.0697C7.4561 19.0697 7.72958 18.8454 7.72958 18.5686V16.9319H9.0735C9.41083 16.9319 9.68438 16.7076 9.68438 16.4308C9.68438 16.1541 9.4109 15.9297 9.0735 15.9297H7.72958V14.7941H9.72507C10.0624 14.7941 10.336 14.5698 10.336 14.2931C10.3359 14.0164 10.0624 13.792 9.72507 13.792Z" fill="white"/>
<path d="M14.5318 17.1668C15.1432 16.8384 15.5481 16.272 15.5481 15.6292C15.5481 14.6161 14.5433 13.792 13.3082 13.792H11.6792C11.3419 13.792 11.0684 14.0163 11.0684 14.2931V18.5686C11.0684 18.8453 11.3418 19.0697 11.6792 19.0697C12.0167 19.0697 12.2901 18.8454 12.2901 18.5686V17.4663H13.3071L14.4289 18.8465C14.5466 18.9913 14.7402 19.0697 14.9376 19.0697C15.0542 19.0697 15.1718 19.0424 15.2759 18.9854C15.5567 18.832 15.6325 18.5209 15.4453 18.2907L14.5318 17.1668ZM13.3082 16.4642H12.2901V14.7941H13.3082C13.8696 14.7941 14.3263 15.1687 14.3263 15.6292C14.3263 16.0897 13.8696 16.4642 13.3082 16.4642Z" fill="white"/>
<path d="M19.4985 18.0676H17.503V16.9302C17.5165 16.931 17.53 16.9319 17.5437 16.9319H18.8469C19.1842 16.9319 19.4577 16.7076 19.4577 16.4309C19.4577 16.1541 19.1843 15.9298 18.8469 15.9298H17.5437C17.5299 15.9298 17.5165 15.9307 17.503 15.9315V14.7941H19.4985C19.8358 14.7941 20.1094 14.5698 20.1094 14.2931C20.1094 14.0164 19.8359 13.792 19.4985 13.792H16.8921C16.5548 13.792 16.2812 14.0163 16.2812 14.2931V18.5686C16.2812 18.8453 16.5547 19.0697 16.8921 19.0697H19.4985C19.8358 19.0697 20.1094 18.8454 20.1094 18.5686C20.1094 18.2919 19.8358 18.0676 19.4985 18.0676Z" fill="white"/>
<path d="M24.061 18.0676H22.0655V16.9319H22.7579C23.0952 16.9319 23.3687 16.7076 23.3687 16.4309C23.3687 16.1541 23.0953 15.9298 22.7579 15.9298H22.0655V14.7941H24.061C24.3983 14.7941 24.6719 14.5698 24.6719 14.2931C24.6719 14.0164 24.3984 13.792 24.061 13.792H21.4546C21.1173 13.792 20.8438 14.0163 20.8438 14.2931V18.5686C20.8438 18.8453 21.1172 19.0697 21.4546 19.0697H24.061C24.3983 19.0697 24.6719 18.8454 24.6719 18.5686C24.6719 18.2919 24.3983 18.0676 24.061 18.0676Z" fill="white"/>
</g>
<defs>
<clipPath id="clip0_341_27166">
<rect width="39.0137" height="32" fill="white" transform="translate(-0.0078125 0.164062)"/>
</clipPath>
</defs>
</svg>
