<svg width="33" height="33" viewBox="0 0 33 33" fill="none" xmlns="http://www.w3.org/2000/svg">
<path fill-rule="evenodd" clip-rule="evenodd" d="M17.0666 4.09456L20.696 2.91989C21.5546 2.64122 22.488 3.02922 22.8986 3.83189L24.6333 7.22922C24.8093 7.57322 25.0893 7.85456 25.4346 8.03056L28.7893 9.74389C29.6173 10.1666 30.016 11.1292 29.7293 12.0146L28.5693 15.5986C28.4506 15.9666 28.4506 16.3626 28.5693 16.7306L29.744 20.3599C30.0226 21.2186 29.6346 22.1519 28.832 22.5626L25.4346 24.2972C25.0906 24.4732 24.8093 24.7532 24.6333 25.0986L22.8973 28.4959C22.4866 29.2999 21.5533 29.6866 20.6946 29.4079L17.0653 28.2332C16.6973 28.1146 16.3013 28.1146 15.9333 28.2332L12.304 29.4079C11.4453 29.6866 10.512 29.2986 10.1013 28.4959L8.36664 25.0986C8.19064 24.7546 7.91064 24.4732 7.56531 24.2972L4.16798 22.5612C3.36398 22.1506 2.97731 21.2172 3.25598 20.3586L4.43064 16.7292C4.54931 16.3612 4.54931 15.9652 4.43064 15.5972L3.25598 11.9692C2.97864 11.1106 3.36531 10.1759 4.16931 9.76522L7.56531 8.03056C7.91064 7.85456 8.19064 7.57456 8.36664 7.22922L10.1026 3.83189C10.512 3.02922 11.4466 2.64256 12.3053 2.91989L15.9346 4.09456C16.3013 4.21456 16.6986 4.21456 17.0666 4.09456V4.09456Z" stroke="white" stroke-width="1.5" stroke-linecap="round" stroke-linejoin="round"/>
<path d="M12.5 20.1641L20.5 12.1641" stroke="white" stroke-width="1.5" stroke-linecap="round" stroke-linejoin="round"/>
<path d="M12.8314 12.1644C12.6474 12.1644 12.498 12.3137 12.4994 12.4977C12.4994 12.6817 12.6487 12.8311 12.8327 12.8311C13.0167 12.8311 13.166 12.6817 13.166 12.4977C13.166 12.3137 13.0167 12.1644 12.8314 12.1644" stroke="white" stroke-width="1.5" stroke-linecap="round" stroke-linejoin="round"/>
<path d="M20.1653 19.4974C19.9813 19.4974 19.832 19.6467 19.8333 19.8307C19.8333 20.0147 19.9827 20.1641 20.1667 20.1641C20.3507 20.1641 20.5 20.0147 20.5 19.8307C20.5 19.6467 20.3507 19.4974 20.1653 19.4974" stroke="white" stroke-width="1.5" stroke-linecap="round" stroke-linejoin="round"/>
</svg>
