<svg width="33" height="33" viewBox="0 0 33 33" fill="none" xmlns="http://www.w3.org/2000/svg">
<g clip-path="url(#clip0_341_27117)">
<path d="M27.9599 4.85031C24.8988 1.82831 20.8289 0.164062 16.4999 0.164062C12.1709 0.164062 8.10089 1.82831 5.03982 4.85031C1.9788 7.87231 0.292969 11.8903 0.292969 16.1641C0.292969 20.4378 1.9788 24.4558 5.03982 27.4778C8.10089 30.4998 12.1709 32.1641 16.4999 32.1641C20.8289 32.1641 24.8988 30.4998 27.9599 27.4778C31.0209 24.4558 32.7068 20.4378 32.7068 16.1641C32.7068 11.8903 31.0209 7.87231 27.9599 4.85031ZM16.4999 30.2891C8.61059 30.2891 2.19221 23.9526 2.19221 16.1641C2.19221 8.3755 8.61059 2.03906 16.4999 2.03906C24.3891 2.03906 30.8075 8.3755 30.8075 16.1641C30.8075 23.9526 24.3891 30.2891 16.4999 30.2891Z" fill="white"/>
<path d="M17.5158 15.2269H15.4815C14.3225 15.2269 13.3797 14.2961 13.3797 13.152C13.3797 12.0078 14.3226 11.077 15.4815 11.077H19.5501C20.0746 11.077 20.4997 10.6572 20.4997 10.1395C20.4997 9.6217 20.0746 9.20195 19.5501 9.20195H17.4483V7.12695C17.4483 6.6092 17.0231 6.18945 16.4987 6.18945C15.9742 6.18945 15.549 6.6092 15.549 7.12695V9.20195H15.4815C13.2753 9.20195 11.4805 10.974 11.4805 13.152C11.4805 15.33 13.2754 17.1019 15.4815 17.1019H17.5159C18.6748 17.1019 19.6177 18.0328 19.6177 19.1769C19.6177 20.321 18.6748 21.2519 17.5159 21.2519H13.4473C12.9228 21.2519 12.4976 21.6716 12.4976 22.1894C12.4976 22.7071 12.9228 23.1269 13.4473 23.1269H15.549V25.202C15.549 25.7197 15.9742 26.1395 16.4987 26.1395C17.0231 26.1395 17.4483 25.7197 17.4483 25.202V23.1269H17.5158C19.722 23.1269 21.5168 21.3549 21.5168 19.1769C21.5168 16.9989 19.722 15.2269 17.5158 15.2269Z" fill="white"/>
</g>
<defs>
<clipPath id="clip0_341_27117">
<rect width="32.4138" height="32" fill="white" transform="translate(0.292969 0.164062)"/>
</clipPath>
</defs>
</svg>
